<?xml version="1.0" encoding="UTF-8" standalone="no"?>
<!-- Created with Inkscape (http://www.inkscape.org/) -->

<svg
   width="1024"
   height="640"
   viewBox="0 0 270.93333 169.33333"
   version="1.1"
   id="svg5"
   inkscape:version="1.2.2 (732a01da63, 2022-12-09, custom)"
   sodipodi:docname="desenho.svg"
   xmlns:inkscape="http://www.inkscape.org/namespaces/inkscape"
   xmlns:sodipodi="http://sodipodi.sourceforge.net/DTD/sodipodi-0.dtd"
   xmlns:xlink="http://www.w3.org/1999/xlink"
   xmlns="http://www.w3.org/2000/svg"
   xmlns:svg="http://www.w3.org/2000/svg">
  <sodipodi:namedview
     id="namedview7"
     pagecolor="#ffffff"
     bordercolor="#000000"
     borderopacity="0.25"
     inkscape:showpageshadow="2"
     inkscape:pageopacity="0.0"
     inkscape:pagecheckerboard="0"
     inkscape:deskcolor="#d1d1d1"
     inkscape:document-units="mm"
     showgrid="false"
     inkscape:zoom="1.3556054"
     inkscape:cx="-1581.95"
     inkscape:cy="969.67743"
     inkscape:window-width="1314"
     inkscape:window-height="704"
     inkscape:window-x="52"
     inkscape:window-y="27"
     inkscape:window-maximized="1"
     inkscape:current-layer="layer1" />
  <defs
     id="defs2">
    <linearGradient
       id="linearGradient25375"
       inkscape:swatch="solid">
      <stop
         style="stop-color:#1d1d1d;stop-opacity:1;"
         offset="0"
         id="stop25373" />
    </linearGradient>
    <linearGradient
       id="linearGradient18869"
       inkscape:swatch="solid">
      <stop
         style="stop-color:#2e1818;stop-opacity:1;"
         offset="0"
         id="stop18867" />
    </linearGradient>
    <rect
       x="-285.32091"
       y="515.0495"
       width="252.57735"
       height="86.6256"
       id="rect17012" />
    <linearGradient
       id="linearGradient3820"
       inkscape:swatch="solid">
      <stop
         style="stop-color:#2c1792;stop-opacity:1;"
         offset="0"
         id="stop3818" />
    </linearGradient>
    <linearGradient
       id="linearGradient3790"
       inkscape:swatch="solid">
      <stop
         style="stop-color:#000000;stop-opacity:1;"
         offset="0"
         id="stop3788" />
    </linearGradient>
    <linearGradient
       id="linearGradient3784"
       inkscape:swatch="solid">
      <stop
         style="stop-color:#000000;stop-opacity:1;"
         offset="0"
         id="stop3782" />
    </linearGradient>
    <linearGradient
       id="linearGradient1816"
       inkscape:swatch="solid">
      <stop
         style="stop-color:#000000;stop-opacity:1;"
         offset="0"
         id="stop1814" />
    </linearGradient>
    <linearGradient
       inkscape:collect="always"
       xlink:href="#linearGradient3820"
       id="linearGradient6734"
       gradientUnits="userSpaceOnUse"
       x1="169.44149"
       y1="84.144308"
       x2="218.04943"
       y2="84.144308" />
    <linearGradient
       inkscape:collect="always"
       xlink:href="#linearGradient18869"
       id="linearGradient23963"
       gradientUnits="userSpaceOnUse"
       gradientTransform="translate(-16.270031,-0.10333717)"
       x1="40.41164"
       y1="147.24626"
       x2="59.260417"
       y2="147.24626" />
    <linearGradient
       inkscape:collect="always"
       xlink:href="#linearGradient18869"
       id="linearGradient23980"
       gradientUnits="userSpaceOnUse"
       gradientTransform="translate(-16.270031,-0.10333717)"
       x1="40.41164"
       y1="147.24626"
       x2="59.260417"
       y2="147.24626" />
    <linearGradient
       inkscape:collect="always"
       xlink:href="#linearGradient18869"
       id="linearGradient29142"
       gradientUnits="userSpaceOnUse"
       gradientTransform="translate(-18.249234,0.50529991)"
       x1="40.41164"
       y1="147.24626"
       x2="59.260417"
       y2="147.24626" />
    <linearGradient
       inkscape:collect="always"
       xlink:href="#linearGradient3820"
       id="linearGradient30606"
       gradientUnits="userSpaceOnUse"
       x1="169.44149"
       y1="84.144308"
       x2="218.04943"
       y2="84.144308" />
  </defs>
  <g
     inkscape:label="Camada 1"
     inkscape:groupmode="layer"
     id="layer1">
    <rect
       style="fill:#008080;stroke:#000000;stroke-width:0.264"
       id="rect215"
       width="271.44543"
       height="168.39407"
       x="-0.4825193"
       y="1.3125761" />
    <path
       style="fill:#333333;stroke:#000000;stroke-width:0.787352"
       d="m 49.758511,1.012204 h -9.231017 v 7.082606 7.082598 h 9.231017 9.231027 V 8.09481 1.012204 Z"
       id="path667" />
    <path
       style="fill:#333333;stroke:#000000;stroke-width:0.787352"
       d="M 10.991034,1.0122083 H 1.7600052 v 7.0826061 7.0825896 h 9.2310288 9.231028 V 8.0948144 1.0122083 Z"
       id="path671" />
    <path
       style="fill:#333333;stroke:#000000;stroke-width:0.787352"
       d="m 88.526012,1.012204 h -9.231026 v 7.082606 7.082598 h 9.231026 9.231029 V 8.09481 1.012204 Z"
       id="path673" />
    <path
       style="fill:#333333;stroke:#000000;stroke-width:0.787352"
       d="m 166.06099,1.012204 h -9.23104 v 7.082606 7.082598 h 9.23104 9.23103 V 8.09481 1.012204 Z"
       id="path679" />
    <path
       style="fill:#333333;stroke:#000000;stroke-width:0.787352"
       d="m 204.82847,1.0122057 h -9.23101 v 7.0826026 7.0825977 h 9.23101 9.23102 V 8.0948083 1.0122057 Z"
       id="path683" />
    <path
       style="fill:#333333;stroke:#000000;stroke-width:0.787352"
       d="m 127.29351,1.0122053 h -9.23101 v 7.082606 7.0825947 h 9.23101 9.23103 V 8.0948113 1.0122053 Z"
       id="path689" />
    <path
       style="fill:#333333;stroke:#000000;stroke-width:0.787352"
       d="m 243.59595,1.012204 h -9.23101 v 7.0826063 7.0825977 h 9.23101 9.23103 V 8.0948103 1.012204 Z"
       id="path691" />
    <path
       style="fill:#333333;stroke:#000000;stroke-width:0.787352"
       d="m 67.969796,15.731631 h -9.231017 v 7.082606 7.082597 h 9.231017 9.231027 v -7.082597 -7.082606 z"
       id="path724" />
    <path
       style="fill:#333333;stroke:#000000;stroke-width:0.787352"
       d="M 29.202319,15.731635 H 19.97129 v 7.082606 7.082589 h 9.231029 9.231027 v -7.082589 -7.082606 z"
       id="path726" />
    <path
       style="fill:#333333;stroke:#000000;stroke-width:0.787352"
       d="m 106.7373,15.731631 h -9.231029 v 7.082606 7.082597 h 9.231029 9.23102 v -7.082597 -7.082606 z"
       id="path728" />
    <path
       style="fill:#333333;stroke:#000000;stroke-width:0.787352"
       d="m 184.27227,15.731631 h -9.23103 v 7.082606 7.082597 h 9.23103 9.23102 v -7.082597 -7.082606 z"
       id="path730" />
    <path
       style="fill:#333333;stroke:#000000;stroke-width:0.787352"
       d="m 223.03976,15.731632 h -9.23102 v 7.082603 7.082597 h 9.23102 9.23103 v -7.082597 -7.082603 z"
       id="path732" />
    <path
       style="fill:#333333;stroke:#000000;stroke-width:0.787352"
       d="m 145.50479,15.731631 h -9.23102 v 7.082606 7.082595 h 9.23102 9.23103 v -7.082595 -7.082606 z"
       id="path734" />
    <path
       style="fill:#333333;stroke:#000000;stroke-width:0.787352"
       d="m 261.80723,15.731631 h -9.23102 v 7.082606 7.082597 h 9.23102 9.23102 v -7.082597 -7.082606 z"
       id="path736" />
    <path
       style="fill:#333333;stroke:#000000;stroke-width:0.787352"
       d="m 49.421013,27.625292 h -9.231015 v 7.082605 7.082597 h 9.231015 9.231028 v -7.082597 -7.082605 z"
       id="path738" />
    <path
       style="fill:#333333;stroke:#000000;stroke-width:0.787352"
       d="M 10.653537,27.625296 H 1.4225086 v 7.082605 7.082589 h 9.2310284 9.231027 v -7.082589 -7.082605 z"
       id="path740" />
    <path
       style="fill:#333333;stroke:#000000;stroke-width:0.787352"
       d="m 88.188515,27.625292 h -9.231027 v 7.082605 7.082597 h 9.231027 9.231028 v -7.082597 -7.082605 z"
       id="path742" />
    <path
       style="fill:#333333;stroke:#000000;stroke-width:0.787352"
       d="m 165.72349,27.625292 h -9.23102 v 7.082605 7.082597 h 9.23102 9.23103 v -7.082597 -7.082605 z"
       id="path744" />
    <path
       style="fill:#333333;stroke:#000000;stroke-width:0.787352"
       d="m 204.49098,27.625293 h -9.23102 v 7.082602 7.082597 h 9.23102 9.23102 v -7.082597 -7.082602 z"
       id="path746" />
    <path
       style="fill:#333333;stroke:#000000;stroke-width:0.787352"
       d="M 126.95601,27.625293 H 117.725 v 7.082605 7.082594 h 9.23101 9.23103 v -7.082594 -7.082605 z"
       id="path748" />
    <path
       style="fill:#333333;stroke:#000000;stroke-width:0.787352"
       d="m 243.25845,27.625292 h -9.23101 v 7.082605 7.082597 h 9.23101 9.23103 v -7.082597 -7.082605 z"
       id="path750" />
    <path
       style="fill:#333333;stroke:#000000;stroke-width:0.787352"
       d="m 67.632298,42.344717 h -9.231015 v 7.082606 7.082599 h 9.231015 9.231029 v -7.082599 -7.082606 z"
       id="path752" />
    <path
       style="fill:#333333;stroke:#000000;stroke-width:0.787352"
       d="m 28.864822,42.344722 h -9.231029 v 7.082606 7.082589 h 9.231029 9.231026 v -7.082589 -7.082606 z"
       id="path754" />
    <path
       style="fill:#333333;stroke:#000000;stroke-width:0.787352"
       d="m 106.39979,42.344717 h -9.231017 v 7.082606 7.082599 h 9.231017 9.23104 v -7.082599 -7.082606 z"
       id="path756" />
    <path
       style="fill:#333333;stroke:#000000;stroke-width:0.787352"
       d="m 183.93478,42.344717 h -9.23104 v 7.082606 7.082599 h 9.23104 9.23102 v -7.082599 -7.082606 z"
       id="path758" />
    <path
       style="fill:#333333;stroke:#000000;stroke-width:0.787352"
       d="m 222.70225,42.344719 h -9.231 v 7.082603 7.082598 h 9.231 9.23103 v -7.082598 -7.082603 z"
       id="path760" />
    <path
       style="fill:#333333;stroke:#000000;stroke-width:0.787352"
       d="m 145.1673,42.344718 h -9.23102 v 7.082606 7.082596 h 9.23102 9.23101 v -7.082596 -7.082606 z"
       id="path762" />
    <path
       style="fill:#333333;stroke:#000000;stroke-width:0.787352"
       d="m 261.46974,42.344717 h -9.23102 v 7.082606 7.082599 h 9.23102 9.23103 v -7.082599 -7.082606 z"
       id="path764" />
    <path
       style="fill:#333333;stroke:#000000;stroke-width:0.787352"
       d="m 48.458206,56.307424 h -9.231017 v 7.082606 7.082598 h 9.231017 9.231027 V 63.39003 56.307424 Z"
       id="path766" />
    <path
       style="fill:#333333;stroke:#000000;stroke-width:0.787352"
       d="M 9.6907282,56.307428 H 0.4597006 v 7.082606 7.08259 h 9.2310276 9.2310288 v -7.08259 -7.082606 z"
       id="path768" />
    <path
       style="fill:#333333;stroke:#000000;stroke-width:0.787352"
       d="m 87.225708,56.307424 h -9.23103 v 7.082606 7.082598 h 9.23103 9.231027 V 63.39003 56.307424 Z"
       id="path770" />
    <path
       style="fill:#333333;stroke:#000000;stroke-width:0.787352"
       d="m 164.76068,56.307424 h -9.23102 v 7.082606 7.082598 h 9.23102 9.23102 V 63.39003 56.307424 Z"
       id="path772" />
    <path
       style="fill:#333333;stroke:#000000;stroke-width:0.787352"
       d="m 203.52817,56.307425 h -9.23103 v 7.082603 7.082598 h 9.23103 9.23102 v -7.082598 -7.082603 z"
       id="path774" />
    <path
       style="fill:#333333;stroke:#000000;stroke-width:0.787352"
       d="m 125.99319,56.307425 h -9.23101 v 7.082606 7.082595 h 9.23101 9.23104 v -7.082595 -7.082606 z"
       id="path776" />
    <path
       style="fill:#333333;stroke:#000000;stroke-width:0.787352"
       d="m 242.29564,56.307424 h -9.23101 v 7.082606 7.082598 h 9.23101 9.23103 V 63.39003 56.307424 Z"
       id="path778" />
    <path
       style="fill:#333333;stroke:#000000;stroke-width:0.787352"
       d="m 66.66949,71.026851 h -9.231016 v 7.082606 7.082597 h 9.231016 9.231028 v -7.082597 -7.082606 z"
       id="path780" />
    <path
       style="fill:#333333;stroke:#000000;stroke-width:0.787352"
       d="m 27.902012,71.026855 h -9.231027 v 7.082606 7.082589 h 9.231027 9.23103 v -7.082589 -7.082606 z"
       id="path782" />
    <path
       style="fill:#333333;stroke:#000000;stroke-width:0.787352"
       d="m 105.43698,71.026851 h -9.231016 v 7.082606 7.082597 h 9.231016 9.23103 v -7.082597 -7.082606 z"
       id="path784" />
    <path
       style="fill:#333333;stroke:#000000;stroke-width:0.787352"
       d="m 182.97196,71.026851 h -9.23103 v 7.082606 7.082597 h 9.23103 9.23103 v -7.082597 -7.082606 z"
       id="path786" />
    <path
       style="fill:#333333;stroke:#000000;stroke-width:0.787352"
       d="m 221.73944,71.026852 h -9.23101 v 7.082603 7.082597 h 9.23101 9.23103 v -7.082597 -7.082603 z"
       id="path788" />
    <path
       style="fill:#333333;stroke:#000000;stroke-width:0.787352"
       d="m 144.20448,71.026851 h -9.23102 v 7.082606 7.082595 h 9.23102 9.23102 v -7.082595 -7.082606 z"
       id="path790" />
    <path
       style="fill:#333333;stroke:#000000;stroke-width:0.787352"
       d="m 260.50693,71.026851 h -9.23102 v 7.082606 7.082597 h 9.23102 9.23102 v -7.082597 -7.082606 z"
       id="path792" />
    <path
       style="fill:#333333;stroke:#000000;stroke-width:0.787352"
       d="m 47.588558,84.691716 h -9.231016 v 7.082605 7.082599 h 9.231016 9.231028 v -7.082599 -7.082605 z"
       id="path794" />
    <path
       style="fill:#333333;stroke:#000000;stroke-width:0.787352"
       d="m 8.8210804,84.691721 h -9.23102759 v 7.082609 7.082581 H 8.8210804 18.052109 V 91.77433 84.691721 Z"
       id="path796" />
    <path
       style="fill:#333333;stroke:#000000;stroke-width:0.787352"
       d="m 86.35606,84.691716 h -9.231028 v 7.082605 7.082599 h 9.231028 9.231028 v -7.082599 -7.082605 z"
       id="path798" />
    <path
       style="fill:#333333;stroke:#000000;stroke-width:0.787352"
       d="M 163.89103,84.691716 H 154.66 v 7.082605 7.082599 h 9.23103 9.23103 v -7.082599 -7.082605 z"
       id="path800" />
    <path
       style="fill:#333333;stroke:#000000;stroke-width:0.787352"
       d="m 202.65852,84.691718 h -9.23102 v 7.082603 7.082599 h 9.23102 9.23103 v -7.082599 -7.082603 z"
       id="path802" />
    <path
       style="fill:#333333;stroke:#000000;stroke-width:0.787352"
       d="m 125.12355,84.691718 h -9.23101 v 7.082603 7.082599 h 9.23101 9.23103 v -7.082599 -7.082603 z"
       id="path804" />
    <path
       style="fill:#333333;stroke:#000000;stroke-width:0.787352"
       d="m 241.426,84.691716 h -9.23102 v 7.082605 7.082599 h 9.23102 9.23102 v -7.082599 -7.082605 z"
       id="path806" />
    <path
       style="fill:#333333;stroke:#000000;stroke-width:0.787352"
       d="m 65.799843,99.411142 h -9.231016 v 7.082598 7.08261 h 9.231016 9.231028 v -7.08261 -7.082598 z"
       id="path808" />
    <path
       style="fill:#333333;stroke:#000000;stroke-width:0.787352"
       d="m 27.032365,99.41115 h -9.231027 v 7.08259 7.0826 h 9.231027 9.231029 v -7.0826 -7.08259 z"
       id="path810" />
    <path
       style="fill:#333333;stroke:#000000;stroke-width:0.787352"
       d="m 104.56734,99.411142 h -9.231023 v 7.082598 7.08261 h 9.231023 9.23103 v -7.08261 -7.082598 z"
       id="path812" />
    <path
       style="fill:#333333;stroke:#000000;stroke-width:0.787352"
       d="m 182.10232,99.411142 h -9.23103 v 7.082598 7.08261 h 9.23103 9.23101 v -7.08261 -7.082598 z"
       id="path814" />
    <path
       style="fill:#333333;stroke:#000000;stroke-width:0.787352"
       d="m 220.8698,99.411142 h -9.23101 v 7.082598 7.0826 h 9.23101 9.23103 v -7.0826 -7.082598 z"
       id="path816" />
    <path
       style="fill:#333333;stroke:#000000;stroke-width:0.787352"
       d="m 143.33483,99.411142 h -9.23102 v 7.082598 7.0826 h 9.23102 9.23103 v -7.0826 -7.082598 z"
       id="path818" />
    <path
       style="fill:#333333;stroke:#000000;stroke-width:0.787352"
       d="m 259.63727,99.411142 h -9.23101 v 7.082598 7.08261 h 9.23101 9.23104 v -7.08261 -7.082598 z"
       id="path820" />
    <path
       style="fill:#333333;stroke:#000000;stroke-width:0.787352"
       d="m 47.094346,112.45399 h -9.231015 v 7.0826 7.0826 h 9.231015 9.231028 v -7.0826 -7.0826 z"
       id="path822" />
    <path
       style="fill:#333333;stroke:#000000;stroke-width:0.787352"
       d="m 8.3268683,112.45399 h -9.23102766 v 7.08261 7.08258 H 8.3268683 17.557897 v -7.08258 -7.08261 z"
       id="path824" />
    <path
       style="fill:#333333;stroke:#000000;stroke-width:0.787352"
       d="m 85.861848,112.45399 h -9.231027 v 7.0826 7.0826 h 9.231027 9.231028 v -7.0826 -7.0826 z"
       id="path826" />
    <path
       style="fill:#333333;stroke:#000000;stroke-width:0.787352"
       d="m 163.39682,112.45399 h -9.23102 v 7.0826 7.0826 h 9.23102 9.23103 v -7.0826 -7.0826 z"
       id="path828" />
    <path
       style="fill:#333333;stroke:#000000;stroke-width:0.787352"
       d="m 202.16431,112.45399 h -9.23101 v 7.0826 7.0826 h 9.23101 9.23103 v -7.0826 -7.0826 z"
       id="path830" />
    <path
       style="fill:#333333;stroke:#000000;stroke-width:0.787352"
       d="m 124.62935,112.45399 h -9.23103 v 7.0826 7.0826 h 9.23103 9.23102 v -7.0826 -7.0826 z"
       id="path832" />
    <path
       style="fill:#333333;stroke:#000000;stroke-width:0.787352"
       d="m 240.93179,112.45399 h -9.23103 v 7.0826 7.0826 h 9.23103 9.23102 v -7.0826 -7.0826 z"
       id="path834" />
    <path
       style="fill:#333333;stroke:#000000;stroke-width:0.787352"
       d="m 181.60811,127.17341 h -9.23104 v 7.0826 7.08261 h 9.23104 9.23102 v -7.08261 -7.0826 z"
       id="path842" />
    <path
       style="fill:#333333;stroke:#000000;stroke-width:0.787352"
       d="m 220.37559,127.17341 h -9.23102 v 7.0826 7.0826 h 9.23102 9.23103 v -7.0826 -7.0826 z"
       id="path844" />
    <path
       style="fill:#333333;stroke:#000000;stroke-width:0.787352"
       d="m 142.84062,127.17341 h -9.231 v 7.0826 7.0826 h 9.231 9.23103 v -7.0826 -7.0826 z"
       id="path846" />
    <path
       style="fill:#333333;stroke:#000000;stroke-width:0.787352"
       d="m 259.14307,127.17341 h -9.23101 v 7.0826 7.08261 h 9.23101 9.23102 v -7.08261 -7.0826 z"
       id="path848" />
    <path
       style="fill:#333333;stroke:#000000;stroke-width:0.787352"
       d="m 45.242342,140.15162 h -9.231016 v 7.08259 7.0826 h 9.231016 9.231027 v -7.0826 -7.08259 z"
       id="path850" />
    <path
       style="fill:#333333;stroke:#000000;stroke-width:0.787352"
       d="m 8.4466946,140.15162 h -9.23102773 v 7.0826 7.08259 H 8.4466946 17.677722 v -7.08259 -7.0826 z"
       id="path852" />
    <path
       style="fill:#333333;stroke:#000000;stroke-width:0.787352"
       d="m 84.009843,140.15162 h -9.231028 v 7.08259 7.0826 h 9.231028 9.231028 v -7.0826 -7.08259 z"
       id="path854" />
    <path
       style="fill:#333333;stroke:#000000;stroke-width:0.787352"
       d="m 161.54482,140.15162 h -9.23102 v 7.08259 7.0826 h 9.23102 9.23103 v -7.0826 -7.08259 z"
       id="path856" />
    <path
       style="fill:#333333;stroke:#000000;stroke-width:0.787352"
       d="m 200.31231,140.15162 h -9.23101 v 7.08259 7.0826 h 9.23101 9.23102 v -7.0826 -7.08259 z"
       id="path858" />
    <path
       style="fill:#333333;stroke:#000000;stroke-width:0.787352"
       d="m 122.77735,140.15162 h -9.23102 v 7.08259 7.0826 h 9.23102 9.23103 v -7.0826 -7.08259 z"
       id="path860" />
    <path
       style="fill:#333333;stroke:#000000;stroke-width:0.787352"
       d="m 239.07979,140.15162 h -9.23102 v 7.08259 7.0826 h 9.23102 9.23103 v -7.0826 -7.08259 z"
       id="path862" />
    <path
       style="fill:#333333;stroke:#000000;stroke-width:0.787352"
       d="M 63.453627,154.87104 H 54.22261 v 7.08261 7.08259 h 9.231017 9.231027 v -7.08259 -7.08261 z"
       id="path864" />
    <path
       style="fill:#333333;stroke:#000000;stroke-width:0.787352"
       d="m 26.540184,154.92432 h -9.231027 v 7.0826 7.08259 h 9.231027 9.231029 v -7.08259 -7.0826 z"
       id="path866" />
    <path
       style="fill:#333333;stroke:#000000;stroke-width:0.787352"
       d="m 102.22113,154.87104 h -9.231031 v 7.08261 7.08259 h 9.231031 9.23103 v -7.08259 -7.08261 z"
       id="path868" />
    <path
       style="fill:#333333;stroke:#000000;stroke-width:0.787352"
       d="m 179.75611,154.87104 h -9.23104 v 7.08261 7.08259 h 9.23104 9.23102 v -7.08259 -7.08261 z"
       id="path870" />
    <path
       style="fill:#333333;stroke:#000000;stroke-width:0.787352"
       d="m 218.52359,154.87104 h -9.23101 v 7.08261 7.08259 h 9.23101 9.23103 v -7.08259 -7.08261 z"
       id="path872" />
    <path
       style="fill:#333333;stroke:#000000;stroke-width:0.787352"
       d="m 140.98863,154.87104 h -9.23102 v 7.08261 7.08259 h 9.23102 9.23102 v -7.08259 -7.08261 z"
       id="path874" />
    <path
       style="fill:#333333;stroke:#000000;stroke-width:0.787352"
       d="m 259.17764,154.87104 h -9.23101 v 7.08261 7.08259 h 9.23101 9.23103 v -7.08259 -7.08261 z"
       id="path876" />
    <g
       id="g6732"
       transform="translate(-203.41032,-4.9717877)">
      <text
         xml:space="preserve"
         style="font-weight:bold;font-size:48.5017px;font-family:'Comic Sans MS';-inkscape-font-specification:'Comic Sans MS, Bold';fill:#ffffff;stroke:#ff1313;stroke-width:0.970607;stroke-opacity:1"
         x="83.012291"
         y="88.726219"
         id="text932"
         transform="scale(1.01214,0.98800561)"><tspan
           sodipodi:role="line"
           id="tspan930"
           style="fill:#ffffff;stroke:#ff1313;stroke-width:0.970607;stroke-opacity:1"
           x="83.012291"
           y="88.726219">Blue</tspan></text>
      <text
         xml:space="preserve"
         style="font-weight:bold;font-size:17.2589px;font-family:'Comic Sans MS';-inkscape-font-specification:'Comic Sans MS, Bold';fill:#ffffff;stroke:url(#linearGradient6734);stroke-width:0.345381;stroke-opacity:1"
         x="169.20967"
         y="87.877556"
         id="text986"
         transform="scale(0.82930162,1.2058339)"><tspan
           sodipodi:role="line"
           id="tspan984"
           style="fill:#ffffff;stroke:url(#linearGradient6734);stroke-width:0.345381;stroke-opacity:1"
           x="169.20967"
           y="87.877556">Scape</tspan></text>
    </g>
    <path
       style="fill:#333333;stroke:#000000;stroke-width:0.805949"
       d="m 104.35712,126.44027 h -9.684969 v 7.0733 7.0733 h 9.684969 9.68495 v -7.0733 -7.0733 z"
       id="path14778" />
    <text
       xml:space="preserve"
       transform="scale(0.26458333)"
       id="text17010"
       style="fill:#ffffff;stroke:#ff1313;-inkscape-font-specification:'Comic Sans MS, Bold';font-family:'Comic Sans MS';font-size:49.86021042px;font-weight:bold;stroke-width:0.99779528;stroke-opacity:1;white-space:pre;shape-inside:url(#rect17012)" />
    <g
       id="g25253">
      <g
         id="g23968">
        <g
           id="g28300">
          <rect
             style="fill:#ffffff;stroke:#ff1313;stroke-width:0.167755;stroke-opacity:1;fill-opacity:1"
             id="rect9694"
             width="39.357117"
             height="12.69347"
             x="17.393307"
             y="127.00639" />
          <text
             xml:space="preserve"
             style="font-weight:bold;font-size:9.93884px;font-family:'Comic Sans MS';-inkscape-font-specification:'Comic Sans MS, Bold';fill:#1d1d1d;stroke:url(#linearGradient23963);stroke-width:0.198894;stroke-opacity:1;fill-opacity:1"
             x="23.949879"
             y="149.63248"
             id="text17018"
             transform="scale(1.1025143,0.90701771)"><tspan
               sodipodi:role="line"
               id="tspan17016"
               style="stroke:url(#linearGradient23963);stroke-width:0.198894;stroke-opacity:1;fill:#1d1d1d;fill-opacity:1"
               x="23.949879"
               y="149.63248">Play</tspan></text>
        </g>
        <g
           id="g28308"
           transform="translate(0.52780168,15.677053)">
          <rect
             style="fill:#ffffff;fill-opacity:1;stroke:#ff1313;stroke-width:0.167755;stroke-opacity:1"
             id="rect28302"
             width="39.357117"
             height="12.69347"
             x="17.393307"
             y="127.00639" />
          <text
             xml:space="preserve"
             style="font-weight:bold;font-size:9.93884px;font-family:'Comic Sans MS';-inkscape-font-specification:'Comic Sans MS, Bold';fill:#1d1d1d;fill-opacity:1;stroke:url(#linearGradient29142);stroke-width:0.198894;stroke-opacity:1"
             x="21.970676"
             y="150.24112"
             id="text28306"
             transform="scale(1.1025143,0.90701771)"><tspan
               sodipodi:role="line"
               id="tspan28304"
               style="fill:#1d1d1d;fill-opacity:1;stroke:url(#linearGradient29142);stroke-width:0.198894;stroke-opacity:1"
               x="21.970676"
               y="150.24112">Quit</tspan></text>
        </g>
      </g>
    </g>
    <path
       style="fill:#333333;stroke:#000000;stroke-width:0.805949"
       d="m 66.791485,126.33449 h -9.684969 v 7.0733 7.0733 h 9.684969 9.68495 v -7.0733 -7.0733 z"
       id="path23955" />
    <g
       id="g23976"
       transform="translate(-73.824645,-0.42884203)">
      <rect
         style="fill:#ffffff;stroke:#ff1313;stroke-width:0.167755;stroke-opacity:1"
         id="rect23970"
         width="39.357117"
         height="12.69347"
         x="17.393307"
         y="127.00639" />
      <text
         xml:space="preserve"
         style="font-weight:bold;font-size:9.93884px;font-family:'Comic Sans MS';-inkscape-font-specification:'Comic Sans MS, Bold';fill:#ffffff;stroke:url(#linearGradient23980);stroke-width:0.198894;stroke-opacity:1"
         x="23.949879"
         y="149.63248"
         id="text23974"
         transform="scale(1.1025143,0.90701771)"><tspan
           sodipodi:role="line"
           id="tspan23972"
           style="stroke:url(#linearGradient23980);stroke-width:0.198894;stroke-opacity:1"
           x="23.949879"
           y="149.63248">Play</tspan></text>
    </g>
    <path
       style="fill:#ffffff;stroke:#3e3e3e;stroke-width:2.08187;stroke-opacity:1"
       d=""
       id="path24465"
       transform="scale(0.26458333)" />
    <path
       style="fill:#ffffff;stroke:#3e3e3e;stroke-width:2.08187;stroke-opacity:1"
       d="m -175.78491,525.27145 c 20.36914,-0.34159 53.70046,-0.34159 74.0696,0 20.369146,0.3416 3.703484,0.62109 -37.0348,0.62109 -40.73828,0 -57.40395,-0.27949 -37.0348,-0.62109 z"
       id="path24467"
       transform="scale(0.26458333)" />
    <path
       style="fill:#ffffff;stroke:#3e3e3e;stroke-width:2.08187;stroke-opacity:1"
       d="m -211.77648,502.1102 v -23.26584 h 73.02637 73.026374 v 23.25845 23.25845 l -22.350091,-1.44497 c -12.292553,-0.79474 -22.734313,-1.82919 -23.203913,-2.2988 -0.46961,-0.4696 2.07665,-6.04635 5.65834,-12.39276 3.5817,-6.34642 6.512179,-12.49208 6.512179,-13.65702 0,-3.45739 -6.615779,-2.40974 -9.682239,1.53325 -2.61307,3.35998 -3.00423,3.3779 -4.90256,0.22458 -1.52197,-2.52814 -5.32955,-3.47272 -14.51992,-3.60209 -10.42032,-0.14668 -12.96058,0.54363 -15.53716,4.22222 -2.93685,4.19294 -3.11066,3.97304 -3.73515,-4.72578 -0.48173,-6.7103 -1.62071,-9.30655 -4.30628,-9.81596 -3.19186,-0.60545 -3.65132,1.12074 -3.65132,13.71791 0,7.92579 0.56125,14.97177 1.24722,15.65774 2.03043,2.03043 7.09865,-0.75737 7.09865,-3.90466 0,-2.08873 1.14274,-1.76373 4.06159,1.15511 2.86803,2.86803 6.39359,3.90326 11.99719,3.52278 7.6791,-0.5214 7.91627,-0.7707 7.33756,-7.71291 l -0.59803,-7.17409 4.21233,5.21617 c 2.32135,2.87454 3.62524,6.62114 2.90452,8.34587 -0.7193,1.72133 -1.37329,4.77279 -1.45331,6.78102 -0.13051,3.27493 -2.8417,3.65243 -26.30087,3.66211 -14.38545,0.006 -35.30974,0.617 -46.49842,1.35792 l -20.34306,1.34713 z m 39.64289,6.24654 c 0,-2.58001 2.2616,-4.51563 6.78102,-5.8036 5.55612,-1.58341 6.89642,-3.10928 7.41987,-8.44719 0.56676,-5.77939 -0.16268,-6.77924 -6.46257,-8.85839 -10.88312,-3.59175 -13.35793,-1.55126 -14.53182,11.98156 -0.56626,6.52796 -0.62233,12.57321 -0.1246,13.43388 1.82246,3.15137 6.9181,1.45266 6.9181,-2.30626 z"
       id="path24469"
       transform="scale(0.26458333)" />
    <path
       style="fill:#ffffff;stroke:#3e3e3e;stroke-width:2.08187;stroke-opacity:1"
       d=""
       id="path24471"
       transform="scale(0.26458333)" />
    <path
       style="fill:#ffffff;stroke:#3e3e3e;stroke-width:2.08187;stroke-opacity:1"
       d=""
       id="path24473"
       transform="scale(0.26458333)" />
    <path
       style="fill:#ffffff;stroke:#3e3e3e;stroke-width:2.08187;stroke-opacity:1"
       d=""
       id="path24475"
       transform="scale(0.26458333)" />
    <path
       style="fill:#ffffff;stroke:#3e3e3e;stroke-width:2.08187;stroke-opacity:1"
       d=""
       id="path24477"
       transform="scale(0.26458333)" />
    <path
       style="fill:#ffffff;stroke:#3e3e3e;stroke-width:0.520467;stroke-opacity:1"
       d="m -210.47244,502.05632 v -21.90791 h 71.72233 71.722331 v 21.90791 c 0,17.18158 -0.140664,21.9067 -0.652021,21.90229 -5.048746,-0.0435 -41.58634,-2.97936 -42.01351,-3.37582 -0.0846,-0.0785 2.55613,-5.44565 5.86819,-11.92705 3.31207,-6.4814 6.021941,-12.3782 6.021941,-13.10402 0,-4.52058 -6.824621,-4.42356 -11.416921,0.1623 l -2.28863,2.28542 -1.31941,-1.6859 c -2.2516,-2.87701 -3.98171,-3.29635 -14.61216,-3.54164 -11.3078,-0.26092 -13.40763,0.14281 -16.31284,3.13644 l -1.95188,2.01128 -0.33733,-3.53903 c -0.61821,-6.48581 -1.33067,-9.11249 -2.89635,-10.67817 -2.7971,-2.7971 -7.28558,-1.56718 -7.28558,1.99637 0,0.62992 -0.14654,1.52718 -0.32563,1.99391 -0.28507,0.74285 -0.419,0.7153 -1.0749,-0.22113 -0.95069,-1.3573 -2.68554,-2.24973 -7.22307,-3.71565 -4.56408,-1.4745 -8.91011,-1.59306 -10.8881,-0.29703 -3.06114,2.00573 -4.59429,8.82723 -4.68755,20.85637 -0.0541,6.98375 -0.0166,7.2463 1.17549,8.21547 3.1181,2.53505 8.41849,-0.10502 8.41849,-4.19318 0,-1.46909 2.70683,-3.44737 6.39736,-4.6755 4.25188,-1.41493 5.50687,-2.32741 6.61973,-4.81306 l 0.90701,-2.02587 0.35387,7.05134 c 0.48173,9.59877 0.94708,10.67757 4.61249,10.69268 2.10503,0.009 5.28249,-2.26237 5.90368,-4.21957 0.30293,-0.95444 0.48901,-0.88818 2.42983,0.86524 3.3375,3.01523 5.1419,3.57533 11.37568,3.53112 6.26577,-0.0444 9.17968,-0.91383 9.62909,-2.87292 0.15241,-0.66441 0.33681,-2.8511 0.40978,-4.85933 l 0.13266,-3.65132 1.4457,2.12912 c 1.92369,2.8331 2.55331,5.13791 1.88425,6.89766 -0.29126,0.76607 -0.69083,2.68386 -0.88792,4.26175 -0.56378,4.51338 0.61439,4.31757 -28.72357,4.7736 -24.20272,0.3762 -39.44171,0.95007 -54.04747,2.03535 -3.72956,0.27712 -7.07443,0.50443 -7.43304,0.50512 -0.51129,0.001 -0.65202,-4.72738 -0.65202,-21.90664 z"
       id="path24479"
       transform="scale(0.26458333)" />
    <path
       style="fill:#ffffff;stroke:#3e3e3e;stroke-width:0.520467;stroke-opacity:1"
       d="m -209.62206,522.26898 c -0.17298,-0.64551 -0.31772,-10.26934 -0.32164,-21.3863 l -0.007,-20.21266 h 71.22294 71.222942 l -0.152631,21.08257 c -0.08395,11.59541 -0.309991,21.23967 -0.502311,21.43169 -0.468047,0.46732 -39.93029,-2.55215 -40.47511,-3.09697 -0.0802,-0.0802 2.44149,-5.39845 5.60379,-11.81829 3.162298,-6.41985 5.749638,-12.21513 5.749638,-12.87841 0,-1.80975 -2.232677,-3.76882 -4.279628,-3.75517 -2.28647,0.0152 -6.01516,1.74921 -8.10712,3.77009 l -1.6936,1.63605 -1.61845,-1.65539 c -2.24247,-2.29365 -4.15865,-2.71329 -14.03337,-3.07324 -10.01033,-0.36489 -13.37943,0.14295 -16.2565,2.45046 l -1.91204,1.53352 -0.32172,-2.20607 c -1.13883,-7.8091 -1.48826,-8.98052 -3.1865,-10.68235 -1.29048,-1.2932 -2.14265,-1.69525 -3.59321,-1.69525 -2.45029,0 -4.46219,1.88759 -4.46219,4.18648 0,1.54085 -0.0472,1.57869 -0.90184,0.72399 -2.21056,-2.21056 -9.19201,-4.3734 -14.14681,-4.38266 -3.05762,-0.006 -3.44503,0.12656 -5.03903,1.72057 -2.81184,2.81184 -3.87991,8.36945 -3.89622,20.27369 -0.0105,7.65501 -0.0103,7.65613 1.3639,8.73709 1.6254,1.27853 3.82594,1.38581 5.94533,0.28983 1.46519,-0.75768 3.11262,-3.13718 3.11262,-4.49579 0,-1.32661 2.32909,-3.03936 6.32159,-4.64874 2.45136,-0.98814 4.61986,-2.25503 5.3547,-3.12834 l 1.23495,-1.46767 0.35902,5.30984 c 0.58416,8.6398 1.33514,10.26519 4.74281,10.26519 2.06714,0 4.94233,-1.54662 5.94731,-3.19918 l 0.88607,-1.45702 1.89329,1.56061 c 3.09406,2.55038 5.02201,3.09589 10.93033,3.09268 5.80904,-0.003 8.75949,-0.57389 9.87102,-1.90946 0.38967,-0.46821 0.83116,-2.51805 0.98109,-4.55522 l 0.27261,-3.70394 1.25072,2.44668 c 1.22202,2.39056 1.23476,2.54923 0.55511,6.91818 -0.38258,2.45934 -1.02038,4.74106 -1.41732,5.07049 -0.99838,0.82858 -11.66977,1.34653 -41.09823,1.99477 -13.77069,0.30334 -29.84953,0.89186 -35.73076,1.30783 -5.88124,0.41596 -10.84182,0.76151 -11.02353,0.76788 -0.1817,0.006 -0.47191,-0.51656 -0.6449,-1.16206 z"
       id="path24481"
       transform="scale(0.26458333)" />
    <path
       style="fill:#ffffff;stroke:#3e3e3e;stroke-width:0.520467;stroke-opacity:1"
       d="m -80.194622,522.09942 c -12.17191,-0.85594 -27.064558,-2.20115 -27.332248,-2.46884 -0.11064,-0.11064 2.15354,-5.15831 5.03152,-11.21703 2.877978,-6.05873 5.373257,-11.71873 5.545067,-12.57778 0.43193,-2.15965 -2.077376,-4.73857 -4.594497,-4.72195 -2.02763,0.0134 -5.43494,1.46193 -7.94858,3.37918 l -1.77284,1.35221 -2.28486,-1.61052 c -2.12078,-1.49486 -2.77048,-1.65034 -9.0474,-2.16512 -9.93778,-0.81502 -16.28831,-0.37409 -19.36306,1.34442 -2.82093,1.57665 -3.02798,1.42984 -3.53826,-2.50882 -0.57331,-4.42507 -1.42499,-6.55442 -3.26927,-8.17373 l -1.75374,-1.5398 h 41.22589 41.225887 l -0.0021,13.43164 c -10e-4,7.3874 -0.154925,16.7765 -0.341946,20.86468 -0.290682,6.35406 -0.460765,7.4233 -1.171729,7.36599 -0.457432,-0.0369 -5.231041,-0.37642 -10.608025,-0.75453 z"
       id="path24483"
       transform="scale(0.26458333)" />
    <path
       style="fill:#ffffff;stroke:#3e3e3e;stroke-width:0.520467;stroke-opacity:1"
       d="m -83.98033,521.31829 c -14.496838,-1.15726 -22.2057,-1.91172 -22.49558,-2.2016 -0.11866,-0.11866 2.03133,-5.09491 4.77776,-11.05834 2.746418,-5.96344 5.12678,-11.50905 5.289686,-12.32358 0.420402,-2.10203 -2.6144,-5.1542 -5.124276,-5.15361 -1.59296,3.7e-4 -6.67948,2.14927 -8.91965,3.76828 -0.73595,0.53188 -1.0897,0.53186 -1.82566,-1.3e-4 -2.24067,-1.61967 -4.84001,-2.30039 -10.74751,-2.8146 -8.12385,-0.70712 -15.27507,-0.27374 -18.41703,1.1161 -1.30694,0.57812 -2.56349,0.93542 -2.79232,0.79399 -0.22883,-0.14142 -0.58146,-1.48919 -0.78361,-2.99504 -0.446,-3.3223 -1.49076,-5.97509 -2.97571,-7.55575 l -1.10926,-1.18075 h 40.33005 40.330045 l -0.279816,19.43023 c -0.153903,10.68663 -0.447318,19.841 -0.652042,20.34306 -0.205851,0.50481 -0.871872,0.88526 -1.490056,0.85114 -0.614804,-0.0339 -6.516566,-0.49266 -13.115021,-1.0194 z"
       id="path24485"
       transform="scale(0.26458333)" />
    <path
       style="fill:#ffffff;stroke:#3e3e3e;stroke-width:0.520467;stroke-opacity:1"
       d="m -87.110031,520.5646 c -14.380449,-1.24469 -18.517399,-1.71326 -18.517399,-2.09737 0,-0.11929 2.25406,-5.27409 5.00902,-11.4551 3.526966,-7.91306 4.919105,-11.59646 4.705122,-12.44905 -0.396864,-1.58123 -2.757916,-3.91848 -4.366122,-4.32212 -1.59956,-0.40146 -4.81749,0.5312 -8.33259,2.41505 l -2.72375,1.45975 -1.98245,-0.98084 c -3.20121,-1.58383 -7.6901,-2.20035 -16.30361,-2.23917 -6.36681,-0.0287 -8.7344,0.16222 -11.14043,0.89838 -1.68045,0.51415 -3.12584,0.86225 -3.21197,0.77355 -0.0861,-0.0887 -0.41198,-1.54852 -0.72408,-3.24403 -0.31211,-1.69552 -1.03795,-3.88016 -1.61298,-4.85477 -0.57504,-0.97461 -1.04552,-1.87597 -1.04552,-2.00301 0,-0.12705 17.60457,-0.231 39.12127,-0.231 h 39.121274 l -0.06904,11.60598 c -0.03797,6.38329 -0.214015,15.24426 -0.391213,19.69104 l -0.322177,8.08506 -1.564851,0.0833 c -0.860668,0.0458 -7.902497,-0.46523 -15.648508,-1.13568 z"
       id="path24487"
       transform="scale(0.26458333)" />
    <path
       style="fill:#ffffff;stroke:#3e3e3e;stroke-width:0.520467;stroke-opacity:1"
       d="m -81.633053,520.51584 c -12.981017,-1.07988 -22.407627,-2.09363 -22.761847,-2.44784 -0.17425,-0.17425 1.51261,-4.49366 3.74858,-9.5987 5.28317,-12.06223 5.67007,-13.34423 4.632634,-15.35041 -0.438299,-0.84757 -1.548376,-2.01245 -2.466838,-2.58861 -2.161506,-1.35593 -4.428516,-1.08471 -9.159156,1.09578 l -3.63036,1.67334 -3.04689,-1.18126 c -2.69135,-1.04342 -4.23379,-1.20839 -13.21842,-1.41379 -7.89262,-0.18043 -10.82829,-0.0601 -13.10287,0.5371 l -2.93135,0.76962 -0.65047,-2.93203 c -0.35776,-1.61262 -0.97516,-3.56588 -1.37199,-4.34058 -0.39684,-0.7747 -0.72153,-1.53757 -0.72153,-1.69526 0,-0.15769 17.25249,-0.28671 38.33885,-0.28671 h 38.338847 l -0.001,7.95466 c -5.21e-4,4.37506 -0.155452,13.05998 -0.343876,19.29983 l -0.342832,11.34517 -1.35138,-0.0622 c -0.743257,-0.0342 -5.224385,-0.38436 -9.958058,-0.77814 z"
       id="path24489"
       transform="scale(0.26458333)" />
    <path
       style="fill:#ffffff;stroke:#3e3e3e;stroke-width:0.520467;stroke-opacity:1"
       d="m -82.15467,519.99599 c -11.822083,-1.04762 -20.84534,-2.09795 -21.21712,-2.46973 -0.17899,-0.17899 1.5009,-4.61319 3.733097,-9.85376 4.739131,-11.12615 5.211654,-13.49085 3.178598,-15.907 -2.674645,-3.17863 -5.488105,-3.27609 -11.959155,-0.41429 l -2.89124,1.27864 -3.01132,-1.03604 c -3.94217,-1.35631 -20.20891,-2.03873 -25.19834,-1.05712 -1.78393,0.35097 -3.35289,0.52874 -3.48659,0.39505 -0.13369,-0.1337 -0.59611,-1.49968 -1.02761,-3.03553 -0.43149,-1.53584 -0.91348,-3.20322 -1.07109,-3.70527 -0.27109,-0.86357 1.74332,-0.91283 37.3307,-0.91283 h 37.61726 l -0.0016,8.21547 c -5.22e-4,4.5185 -0.155374,12.9687 -0.3436,18.77821 l -0.34204,10.56274 -1.612458,-0.061 c -0.886859,-0.0336 -5.250743,-0.38344 -9.697527,-0.7775 z"
       id="path24491"
       transform="scale(0.26458333)" />
    <path
       style="fill:#ffffff;stroke:#3e3e3e;stroke-width:0.520467;stroke-opacity:1"
       d="m -76.677692,519.95655 c -7.620495,-0.66103 -23.673068,-2.35002 -24.646398,-2.5932 -0.6455,-0.16128 -1.17364,-0.4658 -1.17364,-0.67671 0,-0.21092 1.68537,-4.58661 3.74526,-9.72377 4.612759,-11.50374 4.836842,-13.44052 1.869781,-16.16069 -1.709648,-1.5674 -2.284914,-1.78456 -4.694551,-1.77217 -1.84351,0.009 -3.91429,0.5124 -6.30002,1.53008 -3.38665,1.44464 -3.65399,1.48065 -5.68166,0.76525 -4.54934,-1.6051 -24.85394,-2.33209 -28.16278,-1.00835 -0.72257,0.28907 -1.04419,-0.19303 -1.75118,-2.62502 -0.72235,-2.48479 -0.74859,-3.05356 -0.15811,-3.4277 0.38937,-0.24671 16.96283,-0.45216 36.82992,-0.45656 l 36.121973,-0.008 v 8.00118 c 0,4.40065 -0.154561,12.61612 -0.343464,18.25659 l -0.343464,10.25541 -1.6126,-0.0877 c -0.886931,-0.0482 -2.55151,-0.16913 -3.699067,-0.26868 z"
       id="path24493"
       transform="scale(0.26458333)" />
    <path
       style="fill:#ffffff;stroke:#3e3e3e;stroke-width:0.520467;stroke-opacity:1"
       d="m -209.08507,521.80611 c -0.18144,-0.67781 -0.3331,-10.09336 -0.33701,-20.92343 l -0.007,-19.69104 h 27.60558 27.60557 l -1.52472,1.52473 c -0.83861,0.8386 -1.52473,1.89883 -1.52473,2.35606 0,0.69276 -0.44509,0.60579 -2.67012,-0.52171 -3.13538,-1.58882 -8.47407,-2.81564 -12.30822,-2.82841 -6.50952,-0.0217 -8.9822,6.18111 -9.00571,22.59101 l -0.0103,7.21235 1.52472,1.52473 c 2.85195,2.85195 7.55708,1.44478 9.44579,-2.82496 1.27662,-2.88601 2.08995,-3.58116 6.5047,-5.55952 2.00765,-0.89967 4.14341,-2.09764 4.74612,-2.66215 l 1.09584,-1.02637 0.55168,5.4546 c 0.30342,3.00003 0.8671,6.11274 1.25264,6.91713 1.43095,2.98558 6.12468,2.94601 9.14781,-0.0771 l 1.74246,-1.74245 2.59387,1.74554 c 1.80814,1.21679 3.48453,1.85683 5.53419,2.11292 3.87714,0.48441 11.56281,0.005 13.36685,-0.83417 1.49424,-0.69489 2.43947,-2.94611 2.50973,-5.97732 l 0.0363,-1.56485 0.80867,1.62129 c 0.69058,1.38452 0.71804,2.15862 0.18805,5.30076 -0.34134,2.02371 -0.8963,4.05555 -1.23324,4.51519 -0.78612,1.07241 -9.90872,1.62642 -39.21226,2.38136 -21.68736,0.55873 -39.85824,1.32024 -45.17407,1.89318 -2.75372,0.29679 -2.94221,0.24363 -3.25298,-0.91735 z"
       id="path24495"
       transform="scale(0.26458333)" />
    <path
       style="fill:#ffffff;stroke:#3e3e3e;stroke-width:0.520467;stroke-opacity:1"
       d="m -208.56985,520.828 c -0.18576,-0.9288 -0.33774,-10.10958 -0.33774,-20.40173 v -18.71301 h 16.47106 16.47106 l -1.56216,1.56216 c -2.92713,2.92713 -4.21245,9.42133 -4.23977,21.4218 l -0.0161,7.07464 1.50665,1.44346 c 3.00891,2.88272 7.7627,2.00019 9.86903,-1.83215 1.73184,-3.151 2.81908,-4.11119 7.27374,-6.42377 2.48258,-1.28881 4.5589,-2.29319 4.61405,-2.23197 0.0551,0.0612 0.45243,2.53044 0.88285,5.48715 0.84524,5.80633 1.54276,7.12028 4.07508,7.67647 2.258,0.49594 4.50162,-0.18265 6.54985,-1.98102 1.79997,-1.58039 1.8561,-1.59266 3.22136,-0.70402 3.69882,2.40756 4.85628,2.67358 11.56558,2.65815 8.81378,-0.0203 9.60266,-0.38974 11.66188,-5.46197 0.43223,-1.06466 -0.15765,3.45247 -0.7585,5.8084 -0.32837,1.2875 -0.85913,2.00117 -1.65326,2.22302 -1.92042,0.53648 -16.63778,1.27638 -37.16121,1.86822 -21.68096,0.62523 -40.79357,1.42932 -45.17333,1.9005 l -2.92236,0.31439 z"
       id="path24497"
       transform="scale(0.26458333)" />
    <path
       style="fill:#ffffff;stroke:#3e3e3e;stroke-width:0.520467;stroke-opacity:1"
       d="m -208.04823,520.30638 c -0.18576,-0.9288 -0.33774,-9.87485 -0.33774,-19.88011 v -18.1914 h 15.37198 15.37198 l -1.25034,1.84248 c -2.05889,3.03394 -2.9924,8.3823 -3.28379,18.81386 l -0.26373,9.44158 1.76263,1.32486 c 4.03722,3.03452 8.13776,2.00514 11.41955,-2.86673 1.42845,-2.12055 2.72764,-3.22561 5.89025,-5.01008 2.23166,-1.25919 4.14713,-2.19988 4.2566,-2.09041 0.10946,0.10947 0.56276,2.2829 1.00732,4.82985 0.44457,2.54695 1.1789,5.19643 1.63186,5.88773 1.78448,2.72346 5.7146,2.83603 9.34535,0.26768 l 2.1168,-1.4974 2.79805,1.48084 c 2.68689,1.42202 3.08683,1.48085 10.06703,1.48085 5.49548,0 7.64445,-0.19417 8.80792,-0.79582 1.45068,-0.75018 1.53895,-0.73736 1.53895,0.22355 0,1.35122 -1.3632,2.65815 -2.77575,2.66116 -0.625,10e-4 -4.89202,0.22711 -9.48225,0.50173 -4.59023,0.27462 -16.20924,0.74691 -25.82004,1.04953 -22.20374,0.69914 -41.15741,1.50226 -44.91252,1.90306 l -2.92236,0.31191 z"
       id="path24499"
       transform="scale(0.26458333)" />
    <path
       style="fill:#ffffff;stroke:#3e3e3e;stroke-width:0.520467;stroke-opacity:1"
       d="m -207.53081,519.76378 c -0.18345,-0.91726 -0.33355,-9.61914 -0.33355,-19.33751 v -17.66978 h 14.58769 14.58768 l -1.03955,1.7619 c -1.69902,2.87963 -2.55442,8.34684 -2.9168,18.64258 l -0.34181,9.71132 2.3429,1.37304 c 4.56301,2.6741 8.23319,1.64959 12.09936,-3.37748 0.96921,-1.26022 3.02288,-3.04279 4.56372,-3.96126 4.55671,-2.71616 4.45516,-2.73035 5.1437,0.71857 1.10326,5.52626 1.54514,6.7448 2.9109,8.02717 1.94317,1.82452 5.62709,1.71452 8.60624,-0.25699 l 2.1947,-1.45239 2.62184,1.22892 c 2.36504,1.10855 3.34146,1.22892 9.96878,1.22892 4.04082,0 7.98619,-0.17895 8.76749,-0.39767 1.12159,-0.31397 1.3601,-0.24013 1.13331,0.35088 -0.15798,0.4117 -0.62576,0.87845 -1.03951,1.03722 -1.07956,0.41426 -17.89629,1.23184 -43.76532,2.12774 -22.20583,0.76903 -28.85716,1.06895 -36.04924,1.62553 l -3.70898,0.28703 z"
       id="path24501"
       transform="scale(0.26458333)" />
    <path
       style="fill:#ffffff;stroke:#3e3e3e;stroke-width:0.520467;stroke-opacity:1"
       d="m -207.00351,519.27059 c -0.18657,-0.93289 -0.33923,-9.41284 -0.33923,-18.84432 v -17.14816 h 13.83624 13.83625 l -0.85282,1.64918 c -1.36213,2.63405 -2.25758,9.14374 -2.63286,19.14017 l -0.34889,9.29315 2.78873,1.38968 c 5.06478,2.52389 7.31181,1.91601 12.66937,-3.42738 3.58813,-3.57864 7.2984,-6.14025 7.94993,-5.48872 0.16181,0.16181 0.73617,2.06283 1.27636,4.22449 0.54019,2.16167 1.27555,4.40009 1.63413,4.97427 1.64326,2.63128 6.30453,3.08204 9.96418,0.96358 2.19596,-1.27119 2.2283,-1.27379 4.29907,-0.34656 1.71714,0.76888 3.60228,0.9411 10.64969,0.97294 4.70976,0.0213 8.4654,0.13372 8.34587,0.24986 -0.31771,0.30871 -19.47792,1.23402 -49.78709,2.40439 -14.64022,0.56532 -28.04309,1.17675 -29.78414,1.35872 l -3.16555,0.33087 z"
       id="path24503"
       transform="scale(0.26458333)" />
    <path
       style="fill:#ffffff;stroke:#3e3e3e;stroke-width:0.520467;stroke-opacity:1"
       d="m -206.49129,518.70199 c -0.18141,-0.90705 -0.32983,-9.13113 -0.32983,-18.27572 v -16.62654 h 13.09623 c 12.27123,0 13.07203,0.0575 12.712,0.91283 -1.49504,3.55186 -2.85017,15.40235 -2.85497,24.96637 l -0.002,4.23211 3.06453,1.37528 c 5.09418,2.28613 7.43775,1.75446 12.29291,-2.78879 3.09047,-2.89192 7.63935,-6.39651 7.92795,-6.1079 0.11058,0.11057 0.75823,2.11753 1.43922,4.45991 1.35448,4.65891 1.95023,5.63829 3.94289,6.48186 1.01575,0.43002 -3.61092,0.76894 -19.80001,1.45046 -11.61902,0.48912 -23.38302,1.04232 -26.14222,1.22931 l -5.01674,0.34 z"
       id="path24505"
       transform="scale(0.26458333)" />
    <path
       style="fill:#ffffff;stroke:#3e3e3e;stroke-width:0.520467;stroke-opacity:1"
       d="m -205.96266,518.2154 c -0.18527,-0.92632 -0.33685,-8.93143 -0.33685,-17.78913 v -16.10493 h 12.31455 12.31455 l -0.3343,1.33196 c -0.98563,3.92703 -1.92535,12.43962 -2.21414,20.05691 l -0.32639,8.60926 2.94487,1.22058 c 6.38955,2.64833 7.68001,2.29497 15.37155,-4.2091 2.69858,-2.28194 5.08866,-3.95257 5.3113,-3.71251 0.22264,0.24006 0.79646,1.84484 1.27514,3.56618 0.47868,1.72133 1.32297,3.7613 1.87619,4.53326 l 1.00587,1.40357 -2.20966,0.29035 c -1.21531,0.1597 -10.54249,0.64352 -20.72706,1.07516 -10.18457,0.43164 -20.18496,0.92607 -22.22309,1.09873 l -3.70569,0.31392 z"
       id="path24507"
       transform="scale(0.26458333)" />
    <path
       style="fill:#ffffff;stroke:#3e3e3e;stroke-width:0.520467;stroke-opacity:1"
       d="m -87.110031,518.44691 c -6.598455,-0.67464 -12.615711,-1.41102 -13.371679,-1.63638 l -1.37449,-0.40974 3.391228,-8.60668 c 2.533466,-6.42975 3.457469,-9.46779 3.653116,-12.01111 l 0.261886,-3.40443 -2.149724,-1.94215 c -1.82199,-1.64605 -2.513869,-1.94214 -4.538286,-1.94214 -1.31371,0 -4.17516,0.61665 -6.35879,1.37034 -3.59374,1.24039 -4.21771,1.31321 -6.57993,0.76795 -4.11254,-0.94929 -15.11938,-1.71582 -21.93749,-1.52775 l -6.23157,0.17188 -0.62683,-2.1481 -0.62683,-2.14811 3.15319,-0.32957 c 1.73426,-0.18127 18.02397,-0.32958 36.19936,-0.32958 h 33.046156 l -0.0016,7.95466 c -0.001,4.37506 -0.155286,12.3558 -0.343281,17.73498 l -0.341717,9.78032 -1.612782,-0.0589 c -0.887031,-0.0324 -7.011518,-0.61086 -13.609972,-1.28551 z"
       id="path24509"
       transform="scale(0.26458333)" />
    <path
       style="fill:#ffffff;stroke:#3e3e3e;stroke-width:0.520467;stroke-opacity:1"
       d="m -81.633053,518.48444 c -12.403411,-1.23883 -18.132807,-1.94558 -18.721487,-2.3094 -0.40867,-0.25258 0.21641,-2.48217 2.025229,-7.22376 3.080277,-8.07458 4.177451,-12.03147 4.177451,-15.06572 0,-2.02064 -0.211341,-2.37516 -2.422286,-4.06335 -2.957395,-2.25813 -4.427784,-2.33486 -10.855444,-0.56643 -3.69868,1.01761 -5.10108,1.18657 -6.77735,0.81656 -3.18084,-0.70213 -15.38278,-1.57806 -21.98281,-1.57806 h -5.83778 l -0.34274,-1.36559 c -0.18851,-0.75108 -0.19455,-1.51395 -0.0134,-1.69526 0.18112,-0.18131 16.15403,-0.4005 35.49534,-0.48709 l 35.166029,-0.15743 v 7.76766 c 0,4.27221 -0.154404,12.03039 -0.343125,17.24038 l -0.34312,9.47273 -1.352135,-0.067 c -0.743669,-0.0368 -4.286226,-0.36005 -7.872342,-0.71823 z"
       id="path24511"
       transform="scale(0.26458333)" />
    <path
       style="fill:#ffffff;stroke:#3e3e3e;stroke-width:0.520467;stroke-opacity:1"
       d="m -77.199309,518.40217 c -0.860668,-0.10427 -6.14204,-0.6786 -11.736382,-1.27629 -5.594342,-0.59769 -10.360873,-1.26511 -10.592291,-1.48315 -0.231418,-0.21804 0.204461,-2.13186 0.968621,-4.25293 3.246774,-9.01206 4.537214,-13.43405 4.788967,-16.41048 l 0.267692,-3.16488 -2.235118,-1.91318 c -3.017291,-2.58268 -4.68899,-2.79707 -10.8746,-1.39459 -4.78782,1.08555 -5.57525,1.12667 -10.82628,0.56531 -3.11459,-0.33297 -9.81823,-0.75308 -14.89696,-0.93357 -7.47918,-0.26581 -9.29064,-0.47563 -9.53179,-1.10405 -0.16375,-0.42673 -0.17772,-0.89587 -0.031,-1.04255 0.14667,-0.14668 15.87895,-0.38073 34.96061,-0.52011 l 34.693932,-0.25343 -0.0016,7.767 c -0.001,4.27185 -0.155187,11.81606 -0.342911,16.7649 l -0.341315,8.99789 -1.352344,-0.0782 c -0.74379,-0.043 -2.056527,-0.16347 -2.917195,-0.26774 z"
       id="path24513"
       transform="scale(0.26458333)" />
    <path
       style="fill:#ffffff;stroke:#3e3e3e;stroke-width:0.520467;stroke-opacity:1"
       d="m -87.110031,516.82237 c -6.024676,-0.70865 -11.17709,-1.50432 -11.449809,-1.76816 -0.311155,-0.30103 0.314475,-2.85971 1.679604,-6.86921 2.677934,-7.86531 3.77161,-12.17254 3.77161,-14.85376 0,-1.77317 -0.288642,-2.28624 -2.109361,-3.74941 -1.160149,-0.93232 -2.860201,-1.91046 -3.777896,-2.17365 -1.716757,-0.49236 -2.580007,-0.40867 -9.191757,0.89119 -3.07108,0.60377 -5.0518,0.65386 -9.64991,0.24403 -3.18212,-0.28363 -9.29962,-0.67956 -13.59444,-0.87986 -4.29483,-0.20031 -8.40256,-0.52437 -9.1283,-0.72014 -1.87111,-0.50474 22.64272,-1.05488 47.060451,-1.05614 l 20.734274,-0.001 v 7.48014 c 0,4.11408 -0.154227,11.39063 -0.342723,16.17013 l -0.342724,8.68998 -1.352531,-0.0578 c -0.743894,-0.0318 -6.281813,-0.63762 -12.306488,-1.34626 z"
       id="path24515"
       transform="scale(0.26458333)" />
    <path
       style="fill:#ffffff;stroke:#3e3e3e;stroke-width:0.520467;stroke-opacity:1"
       d="m -79.807394,517.13399 c -15.032727,-1.80688 -17.579657,-2.22682 -17.854855,-2.94398 -0.158383,-0.41274 0.678605,-3.8398 1.859974,-7.6157 4.060098,-12.97691 4.155064,-14.58622 1.019132,-17.27046 -1.207874,-1.0339 -2.909649,-2.08729 -3.781723,-2.34088 -1.027271,-0.29872 3.143965,-0.47764 11.846047,-0.50812 l 13.431637,-0.047 -0.0017,7.43304 c -9.39e-4,4.08817 -0.155069,11.13 -0.342473,15.64851 -0.388877,9.37581 0.373717,8.43188 -6.176018,7.64463 z"
       id="path24517"
       transform="scale(0.26458333)" />
    <path
       style="fill:#ffffff;stroke:#3e3e3e;stroke-width:0.520467;stroke-opacity:1"
       d="m -205.43992,517.69942 c -0.18588,-0.92942 -0.33797,-8.70234 -0.33797,-17.27315 v -15.58331 h 11.79219 c 10.49458,0 11.75765,0.09 11.47835,0.81784 -0.69158,1.80223 -1.90191,13.25474 -2.2224,21.02897 -0.32182,7.8065 -0.28724,8.26012 0.65116,8.54054 0.54507,0.16287 2.27169,0.76464 3.83694,1.33726 l 2.84589,1.04112 -2.32428,0.28857 c -1.27835,0.15872 -5.96256,0.42102 -10.40934,0.58291 -4.44678,0.16188 -9.63475,0.43266 -11.52882,0.60172 l -3.44375,0.30738 z"
       id="path24519"
       transform="scale(0.26458333)" />
    <path
       style="fill:#ffffff;stroke:#3e3e3e;stroke-width:0.520467;stroke-opacity:1"
       d="m -204.9183,517.1778 c -0.18589,-0.92941 -0.33797,-8.4676 -0.33797,-16.75153 v -15.06169 h 10.95395 c 6.18727,0 10.95396,0.20539 10.95396,0.472 0,0.2596 -0.36009,3.56181 -0.80021,7.33824 -0.44011,3.77644 -0.85088,10.31022 -0.91283,14.51952 l -0.11262,7.65328 2.21687,0.77131 c 1.21928,0.42422 2.21688,0.92193 2.21688,1.10602 0,0.18409 -3.81433,0.49101 -8.47628,0.68204 -4.66195,0.19104 -10.02596,0.48533 -11.92003,0.654 l -3.44375,0.30666 z"
       id="path24521"
       transform="scale(0.26458333)" />
    <g
       id="g30604"
       transform="translate(5.0757506,-1.1134056)">
      <text
         xml:space="preserve"
         style="font-weight:bold;font-size:48.5017px;font-family:'Comic Sans MS';-inkscape-font-specification:'Comic Sans MS, Bold';fill:#ffffff;stroke:#ff1313;stroke-width:0.970607;stroke-opacity:1"
         x="83.012291"
         y="88.726219"
         id="text30598"
         transform="scale(1.01214,0.98800561)"><tspan
           sodipodi:role="line"
           id="tspan30596"
           style="fill:#ffffff;stroke:#ff1313;stroke-width:0.970607;stroke-opacity:1"
           x="83.012291"
           y="88.726219">Blue</tspan></text>
      <text
         xml:space="preserve"
         style="font-weight:bold;font-size:17.2589px;font-family:'Comic Sans MS';-inkscape-font-specification:'Comic Sans MS, Bold';fill:#ffffff;stroke:url(#linearGradient30606);stroke-width:0.345381;stroke-opacity:1"
         x="169.20967"
         y="87.877556"
         id="text30602"
         transform="scale(0.82930162,1.2058339)"><tspan
           sodipodi:role="line"
           id="tspan30600"
           style="fill:#ffffff;stroke:url(#linearGradient30606);stroke-width:0.345381;stroke-opacity:1"
           x="169.20967"
           y="87.877556">Scape</tspan></text>
    </g>
    <rect
       style="fill:#00ffff;stroke:#3e3e3e;stroke-width:0.264"
       id="rect2453"
       width="270.93332"
       height="169.33333"
       x="-471.5365"
       y="44.698181" />
    <path
       style="fill:#333333;stroke:#000000;stroke-width:2.78591"
       d="m -335.15793,200.01162 h -134.55534 v 6.08332 6.0833 h 134.55534 134.55521 v -6.0833 -6.08332 z"
       id="path7462" />
    <g
       id="g43462"
       transform="translate(0.2030277,46.478577)">
      <rect
         style="fill:#ffffff;fill-opacity:1;stroke:#404040;stroke-width:0.264;stroke-opacity:0.998575"
         id="rect41226"
         width="16.933332"
         height="16.933332"
         x="-415.11581"
         y="176.25139" />
      <g
         id="g43435"
         transform="translate(-0.24551425,0.02713111)">
        <g
           id="g40496"
           transform="matrix(0.90569067,0,0,0.74704585,-19.223439,46.633357)">
          <rect
             style="fill:#0071ff;fill-opacity:1;stroke:#3e3e3e;stroke-width:0.258461"
             id="rect5421"
             width="14.948895"
             height="17.544689"
             x="-432.5564"
             y="181.32208"
             transform="matrix(0.99985934,0.01677212,-0.01912129,0.99981717,0,0)"
             ry="4.1648521" />
          <rect
             style="fill:#0000ff;fill-opacity:1;stroke:#3e3e3e;stroke-width:0.264407"
             id="rect21184"
             width="2.2904799"
             height="5.4481487"
             x="-428.23334"
             y="232.62692"
             ry="1.1417161"
             inkscape:transform-center-x="0.022793745"
             inkscape:transform-center-y="2.1906753"
             transform="matrix(0.99514808,0.0983885,-0.02008021,0.99979837,0,0)" />
          <rect
             style="fill:#3131ff;fill-opacity:1;stroke:#3e3e3e;stroke-width:0.264"
             id="rect24098"
             width="2.2834322"
             height="5.4481487"
             x="-423.86316"
             y="196.58818"
             ry="1.1417161"
             inkscape:transform-center-x="0.055229114"
             inkscape:transform-center-y="2.1965981"
             transform="rotate(0.81395991)" />
          <rect
             style="fill:#4f95ee;fill-opacity:1;stroke:#3e3e3e;stroke-width:0.258461"
             id="rect8540"
             width="14.948895"
             height="17.544689"
             x="-430.84131"
             y="181.67683"
             transform="matrix(0.99985934,0.01677212,-0.01912129,0.99981717,0,0)"
             ry="4.1648521" />
          <rect
             style="fill:#ffffff;fill-opacity:1;stroke:#3e3e3e;stroke-width:0.264"
             id="rect35922"
             width="9.9609957"
             height="5.0003099"
             x="-431.75897"
             y="176.38947"
             ry="2.500155" />
          <ellipse
             style="fill:#000000;fill-opacity:1;stroke:#3e3e3e;stroke-width:0.264"
             id="path17436"
             cx="-427.19662"
             cy="179.50711"
             rx="1.1167574"
             ry="1.0996282" />
          <ellipse
             style="fill:#000000;fill-opacity:1;stroke:#3e3e3e;stroke-width:0.264"
             id="ellipse17490"
             cx="-423.94421"
             cy="179.4509"
             rx="1.1167574"
             ry="1.0996282" />
          <ellipse
             style="fill:#00ffff;fill-opacity:1;stroke:#3e3e3e;stroke-width:0.264"
             id="path31484"
             cx="-430.06146"
             cy="186.14236"
             rx="2.0792894"
             ry="1.9922063" />
          <g
             id="g35930"
             transform="translate(1.7633654,-0.11598147)">
            <g
               id="g35184">
              <rect
                 style="fill:#00ffff;fill-opacity:1;stroke:#404040;stroke-width:0.264;stroke-opacity:0.998575"
                 id="rect31538"
                 width="0.87442863"
                 height="2.7828619"
                 x="-432.30545"
                 y="184.97853"
                 ry="0.58811527" />
              <rect
                 style="fill:#00ffff;fill-opacity:1;stroke:#404040;stroke-width:0.264;stroke-opacity:0.998575"
                 id="rect31540"
                 width="0.87442863"
                 height="2.7828619"
                 x="185.95914"
                 y="430.47076"
                 ry="0.58811527"
                 transform="rotate(90)" />
            </g>
            <g
               id="g35190"
               transform="translate(0.16569934,-0.2034774)">
              <rect
                 style="fill:#00ffff;fill-opacity:1;stroke:#404040;stroke-width:0.264;stroke-opacity:0.998575"
                 id="rect35186"
                 width="0.87442863"
                 height="2.7828619"
                 x="-432.30545"
                 y="184.97853"
                 ry="0.58811527" />
              <rect
                 style="fill:#00ffff;fill-opacity:1;stroke:#404040;stroke-width:0.264;stroke-opacity:0.998575"
                 id="rect35188"
                 width="0.87442863"
                 height="2.7828619"
                 x="185.95914"
                 y="430.47076"
                 ry="0.58811527"
                 transform="rotate(90)" />
            </g>
          </g>
          <ellipse
             style="fill:#00ffff;fill-opacity:1;stroke:#404040;stroke-width:0.264;stroke-opacity:0.998575"
             id="path39624"
             cx="-423.85245"
             cy="186.26469"
             rx="1.8703358"
             ry="1.8815888" />
          <ellipse
             style="fill:#ffffff;fill-opacity:1;stroke:#404040;stroke-width:0.264;stroke-opacity:0.998575"
             id="path39628"
             cx="-423.95074"
             cy="187.42688"
             rx="0.41399074"
             ry="0.42020467" />
          <ellipse
             style="fill:#ffffff;fill-opacity:1;stroke:#404040;stroke-width:0.264;stroke-opacity:0.998575"
             id="ellipse39684"
             cx="-424.90588"
             cy="186.33257"
             rx="0.41399074"
             ry="0.42020467" />
          <ellipse
             style="fill:#ffffff;fill-opacity:1;stroke:#404040;stroke-width:0.264;stroke-opacity:0.998575"
             id="ellipse39686"
             cx="-423.91711"
             cy="185.36845"
             rx="0.41399074"
             ry="0.42020467" />
          <ellipse
             style="fill:#ffffff;fill-opacity:1;stroke:#404040;stroke-width:0.264;stroke-opacity:0.998575"
             id="ellipse39688"
             cx="-422.96829"
             cy="186.384"
             rx="0.41399074"
             ry="0.42020467" />
          <rect
             style="fill:#ffffff;fill-opacity:1;stroke:#404040;stroke-width:0.264;stroke-opacity:0.998575"
             id="rect40470"
             width="2.3811846"
             height="0.957286"
             x="-426.15964"
             y="189.00815"
             ry="0.478643" />
          <rect
             style="fill:#ffffff;fill-opacity:1;stroke:#404040;stroke-width:0.264;stroke-opacity:0.998575"
             id="rect40472"
             width="2.3811846"
             height="0.957286"
             x="-429.51544"
             y="189.02515"
             ry="0.478643" />
        </g>
      </g>
    </g>
    <g
       id="g43775">
      <rect
         style="fill:#ffffff;fill-opacity:1;stroke:#404040;stroke-width:0.264;stroke-opacity:0.998575"
         id="rect43564"
         width="16.933332"
         height="16.933332"
         x="-394.90094"
         y="222.77145" />
      <rect
         style="fill:#0071ff;fill-opacity:1;stroke:#3e3e3e;stroke-width:0.212602"
         id="rect43566"
         width="13.538466"
         height="13.107813"
         x="-388.76324"
         y="229.58974"
         transform="matrix(0.99990429,0.01383486,-0.02317995,0.99973131,0,0)"
         ry="3.1116028" />
      <rect
         style="fill:#0000ff;fill-opacity:1;stroke:#3e3e3e;stroke-width:0.21733"
         id="rect43568"
         width="2.0712543"
         height="4.0704021"
         x="-384.22757"
         y="266.76212"
         ry="0.8529951"
         inkscape:transform-center-x="0.022793745"
         inkscape:transform-center-y="2.1906753"
         transform="matrix(0.99669129,0.08128018,-0.0243422,0.99970368,0,0)" />
      <rect
         style="fill:#3131ff;fill-opacity:1;stroke:#3e3e3e;stroke-width:0.217155"
         id="rect43570"
         width="2.0680165"
         height="4.07021"
         x="-381.52591"
         y="240.03416"
         ry="0.85295475"
         inkscape:transform-center-x="0.055229114"
         inkscape:transform-center-y="2.1965981"
         transform="matrix(0.99993134,0.01171783,-0.01722177,0.99985169,0,0)" />
      <rect
         style="fill:#4f95ee;fill-opacity:1;stroke:#3e3e3e;stroke-width:0.212602"
         id="rect43572"
         width="13.538466"
         height="13.107813"
         x="-387.39792"
         y="229.69197"
         transform="matrix(0.99990429,0.01383486,-0.02317995,0.99973131,0,0)"
         ry="3.1116028" />
      <rect
         style="fill:#ffffff;fill-opacity:1;stroke:#3e3e3e;stroke-width:0.217154"
         id="rect43574"
         width="9.0215807"
         height="3.7354608"
         x="-390.29541"
         y="225.77153"
         ry="1.8677304" />
      <ellipse
         style="fill:#000000;fill-opacity:1;stroke:#3e3e3e;stroke-width:0.217154"
         id="ellipse43576"
         cx="-386.15045"
         cy="227.74097"
         rx="1.0114367"
         ry="0.8214727" />
      <ellipse
         style="fill:#000000;fill-opacity:1;stroke:#3e3e3e;stroke-width:0.217154"
         id="ellipse43578"
         cx="-383.20477"
         cy="227.76091"
         rx="1.0114367"
         ry="0.8214727" />
      <g
         id="g43749"
         transform="translate(0.02602026,0.51322329)">
        <ellipse
           style="fill:#00ffff;fill-opacity:1;stroke:#3e3e3e;stroke-width:0.217154"
           id="ellipse43580"
           cx="-388.74509"
           cy="232.42072"
           rx="1.883193"
           ry="1.4882694" />
        <g
           id="g43594"
           transform="matrix(0.90569067,0,0,0.74704585,2.3546375,93.277181)">
          <g
             id="g43586">
            <rect
               style="fill:#00ffff;fill-opacity:1;stroke:#404040;stroke-width:0.264;stroke-opacity:0.998575"
               id="rect43582"
               width="0.87442863"
               height="2.7828619"
               x="-432.30545"
               y="184.97853"
               ry="0.58811527" />
            <rect
               style="fill:#00ffff;fill-opacity:1;stroke:#404040;stroke-width:0.264;stroke-opacity:0.998575"
               id="rect43584"
               width="0.87442863"
               height="2.7828619"
               x="185.95914"
               y="430.47076"
               ry="0.58811527"
               transform="rotate(90)" />
          </g>
          <g
             id="g43592"
             transform="translate(0.16569934,-0.2034774)">
            <rect
               style="fill:#00ffff;fill-opacity:1;stroke:#404040;stroke-width:0.264;stroke-opacity:0.998575"
               id="rect43588"
               width="0.87442863"
               height="2.7828619"
               x="-432.30545"
               y="184.97853"
               ry="0.58811527" />
            <rect
               style="fill:#00ffff;fill-opacity:1;stroke:#404040;stroke-width:0.264;stroke-opacity:0.998575"
               id="rect43590"
               width="0.87442863"
               height="2.7828619"
               x="185.95914"
               y="430.47076"
               ry="0.58811527"
               transform="rotate(90)" />
          </g>
        </g>
        <ellipse
           style="fill:#00ffff;fill-opacity:1;stroke:#404040;stroke-width:0.217154;stroke-opacity:0.998575"
           id="ellipse43596"
           cx="-383.12164"
           cy="232.5121"
           rx="1.6939456"
           ry="1.4056331" />
        <ellipse
           style="fill:#ffffff;fill-opacity:1;stroke:#404040;stroke-width:0.217154;stroke-opacity:0.998575"
           id="ellipse43598"
           cx="-383.21066"
           cy="233.38031"
           rx="0.37494755"
           ry="0.31391215" />
        <ellipse
           style="fill:#ffffff;fill-opacity:1;stroke:#404040;stroke-width:0.217154;stroke-opacity:0.998575"
           id="ellipse43600"
           cx="-384.07574"
           cy="232.56281"
           rx="0.37494755"
           ry="0.31391215" />
        <ellipse
           style="fill:#ffffff;fill-opacity:1;stroke:#404040;stroke-width:0.217154;stroke-opacity:0.998575"
           id="ellipse43602"
           cx="-383.18021"
           cy="231.84258"
           rx="0.37494755"
           ry="0.31391215" />
        <ellipse
           style="fill:#ffffff;fill-opacity:1;stroke:#404040;stroke-width:0.217154;stroke-opacity:0.998575"
           id="ellipse43604"
           cx="-382.32086"
           cy="232.60123"
           rx="0.37494755"
           ry="0.31391215" />
        <rect
           style="fill:#ffffff;fill-opacity:1;stroke:#404040;stroke-width:0.217154;stroke-opacity:0.998575"
           id="rect43606"
           width="2.1566167"
           height="0.71513653"
           x="-385.21124"
           y="234.56158"
           ry="0.35756826" />
        <rect
           style="fill:#ffffff;fill-opacity:1;stroke:#404040;stroke-width:0.217154;stroke-opacity:0.998575"
           id="rect43608"
           width="2.1566167"
           height="0.71513653"
           x="-388.25058"
           y="234.57428"
           ry="0.35756826" />
      </g>
    </g>
    <g
       id="g44099">
      <g
         id="g43827"
         transform="translate(-0.06460242,77.239354)">
        <rect
           style="fill:#ffffff;fill-opacity:1;stroke:#404040;stroke-width:0.264;stroke-opacity:0.998575"
           id="rect43777"
           width="16.933332"
           height="16.933332"
           x="-415.11581"
           y="176.25139" />
        <g
           id="g43825"
           transform="translate(-0.24551425,0.02713111)">
          <g
             id="g43823"
             transform="matrix(0.90569067,0,0,0.74704585,-19.223439,46.633357)">
            <rect
               style="fill:#0071ff;fill-opacity:1;stroke:#3e3e3e;stroke-width:0.258461"
               id="rect43779"
               width="14.948895"
               height="17.544689"
               x="-432.5564"
               y="181.32208"
               transform="matrix(0.99985934,0.01677212,-0.01912129,0.99981717,0,0)"
               ry="4.1648521" />
            <rect
               style="fill:#0000ff;fill-opacity:1;stroke:#3e3e3e;stroke-width:0.264407"
               id="rect43781"
               width="2.2904799"
               height="5.4481487"
               x="-428.23334"
               y="232.62692"
               ry="1.1417161"
               inkscape:transform-center-x="0.022793745"
               inkscape:transform-center-y="2.1906753"
               transform="matrix(0.99514808,0.0983885,-0.02008021,0.99979837,0,0)" />
            <rect
               style="fill:#3131ff;fill-opacity:1;stroke:#3e3e3e;stroke-width:0.264"
               id="rect43783"
               width="2.2834322"
               height="5.4481487"
               x="-423.86316"
               y="196.58818"
               ry="1.1417161"
               inkscape:transform-center-x="0.055229114"
               inkscape:transform-center-y="2.1965981"
               transform="rotate(0.81395991)" />
            <rect
               style="fill:#4f95ee;fill-opacity:1;stroke:#3e3e3e;stroke-width:0.258461"
               id="rect43785"
               width="14.948895"
               height="17.544689"
               x="-430.84131"
               y="181.67683"
               transform="matrix(0.99985934,0.01677212,-0.01912129,0.99981717,0,0)"
               ry="4.1648521" />
            <rect
               style="fill:#ffffff;fill-opacity:1;stroke:#3e3e3e;stroke-width:0.264"
               id="rect43787"
               width="9.9609957"
               height="5.0003099"
               x="-431.75897"
               y="176.38947"
               ry="2.500155" />
            <ellipse
               style="fill:#000000;fill-opacity:1;stroke:#3e3e3e;stroke-width:0.264"
               id="ellipse43789"
               cx="-427.19662"
               cy="179.50711"
               rx="1.1167574"
               ry="1.0996282" />
            <ellipse
               style="fill:#000000;fill-opacity:1;stroke:#3e3e3e;stroke-width:0.264"
               id="ellipse43791"
               cx="-423.94421"
               cy="179.4509"
               rx="1.1167574"
               ry="1.0996282" />
            <ellipse
               style="fill:#00ffff;fill-opacity:1;stroke:#3e3e3e;stroke-width:0.264"
               id="ellipse43793"
               cx="-430.06146"
               cy="186.14236"
               rx="2.0792894"
               ry="1.9922063" />
            <g
               id="g43807"
               transform="translate(1.7633654,-0.11598147)">
              <g
                 id="g43799">
                <rect
                   style="fill:#00ffff;fill-opacity:1;stroke:#404040;stroke-width:0.264;stroke-opacity:0.998575"
                   id="rect43795"
                   width="0.87442863"
                   height="2.7828619"
                   x="-432.30545"
                   y="184.97853"
                   ry="0.58811527" />
                <rect
                   style="fill:#00ffff;fill-opacity:1;stroke:#404040;stroke-width:0.264;stroke-opacity:0.998575"
                   id="rect43797"
                   width="0.87442863"
                   height="2.7828619"
                   x="185.95914"
                   y="430.47076"
                   ry="0.58811527"
                   transform="rotate(90)" />
              </g>
              <g
                 id="g43805"
                 transform="translate(0.16569934,-0.2034774)">
                <rect
                   style="fill:#00ffff;fill-opacity:1;stroke:#404040;stroke-width:0.264;stroke-opacity:0.998575"
                   id="rect43801"
                   width="0.87442863"
                   height="2.7828619"
                   x="-432.30545"
                   y="184.97853"
                   ry="0.58811527" />
                <rect
                   style="fill:#00ffff;fill-opacity:1;stroke:#404040;stroke-width:0.264;stroke-opacity:0.998575"
                   id="rect43803"
                   width="0.87442863"
                   height="2.7828619"
                   x="185.95914"
                   y="430.47076"
                   ry="0.58811527"
                   transform="rotate(90)" />
              </g>
            </g>
            <ellipse
               style="fill:#00ffff;fill-opacity:1;stroke:#404040;stroke-width:0.264;stroke-opacity:0.998575"
               id="ellipse43809"
               cx="-423.85245"
               cy="186.26469"
               rx="1.8703358"
               ry="1.8815888" />
            <ellipse
               style="fill:#ffffff;fill-opacity:1;stroke:#404040;stroke-width:0.264;stroke-opacity:0.998575"
               id="ellipse43811"
               cx="-423.95074"
               cy="187.42688"
               rx="0.41399074"
               ry="0.42020467" />
            <ellipse
               style="fill:#ffffff;fill-opacity:1;stroke:#404040;stroke-width:0.264;stroke-opacity:0.998575"
               id="ellipse43813"
               cx="-424.90588"
               cy="186.33257"
               rx="0.41399074"
               ry="0.42020467" />
            <ellipse
               style="fill:#ffffff;fill-opacity:1;stroke:#404040;stroke-width:0.264;stroke-opacity:0.998575"
               id="ellipse43815"
               cx="-423.91711"
               cy="185.36845"
               rx="0.41399074"
               ry="0.42020467" />
            <ellipse
               style="fill:#ffffff;fill-opacity:1;stroke:#404040;stroke-width:0.264;stroke-opacity:0.998575"
               id="ellipse43817"
               cx="-422.96829"
               cy="186.384"
               rx="0.41399074"
               ry="0.42020467" />
            <rect
               style="fill:#ffffff;fill-opacity:1;stroke:#404040;stroke-width:0.264;stroke-opacity:0.998575"
               id="rect43819"
               width="2.3811846"
               height="0.957286"
               x="-426.15964"
               y="189.00815"
               ry="0.478643" />
            <rect
               style="fill:#ffffff;fill-opacity:1;stroke:#404040;stroke-width:0.264;stroke-opacity:0.998575"
               id="rect43821"
               width="2.3811846"
               height="0.957286"
               x="-429.51544"
               y="189.02515"
               ry="0.478643" />
          </g>
        </g>
      </g>
    </g>
    <g
       id="g44124">
      <rect
         style="fill:#ffffff;fill-opacity:1;stroke:#404040;stroke-width:0.264;stroke-opacity:0.998575"
         id="rect43829"
         width="16.933332"
         height="16.933332"
         x="-394.06253"
         y="253.45085" />
      <rect
         style="fill:#0071ff;fill-opacity:1;stroke:#3e3e3e;stroke-width:0.212602"
         id="rect43831"
         width="13.538466"
         height="13.107813"
         x="-387.28949"
         y="259.29913"
         transform="matrix(0.99990429,0.01383486,-0.02317995,0.99973131,0,0)"
         ry="3.1116028" />
      <rect
         style="fill:#3131ff;fill-opacity:1;stroke:#3e3e3e;stroke-width:0.217155"
         id="rect43835"
         width="2.0680165"
         height="4.07021"
         x="-301.46228"
         y="355.99951"
         ry="0.85295475"
         inkscape:transform-center-x="0.59378288"
         inkscape:transform-center-y="2.1155436"
         transform="matrix(0.9663353,0.25728602,-0.26260131,0.96490443,0,0)" />
      <rect
         style="fill:#0000ff;fill-opacity:1;stroke:#3e3e3e;stroke-width:0.21733"
         id="rect43833"
         width="2.0712543"
         height="4.0704021"
         x="-453.8793"
         y="154.79721"
         ry="0.8529951"
         inkscape:transform-center-x="-0.72628311"
         inkscape:transform-center-y="2.0669024"
         transform="matrix(0.96458137,-0.26378548,0.31833246,0.94797914,0,0)" />
      <rect
         style="fill:#4f95ee;fill-opacity:1;stroke:#3e3e3e;stroke-width:0.212602"
         id="rect43837"
         width="13.538466"
         height="13.107813"
         x="-385.73624"
         y="259.56418"
         transform="matrix(0.99990429,0.01383486,-0.02317995,0.99973131,0,0)"
         ry="3.1116028" />
      <rect
         style="fill:#ffffff;fill-opacity:1;stroke:#3e3e3e;stroke-width:0.217154"
         id="rect43839"
         width="9.0215807"
         height="3.7354608"
         x="-389.45572"
         y="255.63097"
         ry="1.8677304" />
      <ellipse
         style="fill:#000000;fill-opacity:1;stroke:#3e3e3e;stroke-width:0.217154"
         id="ellipse43841"
         cx="-385.32367"
         cy="257.95999"
         rx="1.0114367"
         ry="0.8214727" />
      <ellipse
         style="fill:#000000;fill-opacity:1;stroke:#3e3e3e;stroke-width:0.217154"
         id="ellipse43843"
         cx="-382.37799"
         cy="257.918"
         rx="1.0114367"
         ry="0.8214727" />
      <ellipse
         style="fill:#00ffff;fill-opacity:1;stroke:#3e3e3e;stroke-width:0.217154"
         id="ellipse43845"
         cx="-387.9183"
         cy="262.91684"
         rx="1.883193"
         ry="1.4882694" />
      <g
         id="g43859"
         transform="matrix(0.90569067,0,0,0.74704585,3.1814056,123.77331)">
        <g
           id="g43851">
          <rect
             style="fill:#00ffff;fill-opacity:1;stroke:#404040;stroke-width:0.264;stroke-opacity:0.998575"
             id="rect43847"
             width="0.87442863"
             height="2.7828619"
             x="-432.30545"
             y="184.97853"
             ry="0.58811527" />
          <rect
             style="fill:#00ffff;fill-opacity:1;stroke:#404040;stroke-width:0.264;stroke-opacity:0.998575"
             id="rect43849"
             width="0.87442863"
             height="2.7828619"
             x="185.95914"
             y="430.47076"
             ry="0.58811527"
             transform="rotate(90)" />
        </g>
        <g
           id="g43857"
           transform="translate(0.16569934,-0.2034774)">
          <rect
             style="fill:#00ffff;fill-opacity:1;stroke:#404040;stroke-width:0.264;stroke-opacity:0.998575"
             id="rect43853"
             width="0.87442863"
             height="2.7828619"
             x="-432.30545"
             y="184.97853"
             ry="0.58811527" />
          <rect
             style="fill:#00ffff;fill-opacity:1;stroke:#404040;stroke-width:0.264;stroke-opacity:0.998575"
             id="rect43855"
             width="0.87442863"
             height="2.7828619"
             x="185.95914"
             y="430.47076"
             ry="0.58811527"
             transform="rotate(90)" />
        </g>
      </g>
      <ellipse
         style="fill:#00ffff;fill-opacity:1;stroke:#404040;stroke-width:0.217154;stroke-opacity:0.998575"
         id="ellipse43861"
         cx="-382.29486"
         cy="263.00821"
         rx="1.6939456"
         ry="1.4056331" />
      <ellipse
         style="fill:#ffffff;fill-opacity:1;stroke:#404040;stroke-width:0.217154;stroke-opacity:0.998575"
         id="ellipse43863"
         cx="-382.38388"
         cy="263.87643"
         rx="0.37494755"
         ry="0.31391215" />
      <ellipse
         style="fill:#ffffff;fill-opacity:1;stroke:#404040;stroke-width:0.217154;stroke-opacity:0.998575"
         id="ellipse43865"
         cx="-383.24896"
         cy="263.05893"
         rx="0.37494755"
         ry="0.31391215" />
      <ellipse
         style="fill:#ffffff;fill-opacity:1;stroke:#404040;stroke-width:0.217154;stroke-opacity:0.998575"
         id="ellipse43867"
         cx="-382.35342"
         cy="262.33868"
         rx="0.37494755"
         ry="0.31391215" />
      <ellipse
         style="fill:#ffffff;fill-opacity:1;stroke:#404040;stroke-width:0.217154;stroke-opacity:0.998575"
         id="ellipse43869"
         cx="-381.49408"
         cy="263.09735"
         rx="0.37494755"
         ry="0.31391215" />
      <rect
         style="fill:#ffffff;fill-opacity:1;stroke:#404040;stroke-width:0.217154;stroke-opacity:0.998575"
         id="rect43871"
         width="2.1566167"
         height="0.71513653"
         x="-384.38446"
         y="265.05771"
         ry="0.35756826" />
      <rect
         style="fill:#ffffff;fill-opacity:1;stroke:#404040;stroke-width:0.217154;stroke-opacity:0.998575"
         id="rect43873"
         width="2.1566167"
         height="0.71513653"
         x="-387.4238"
         y="265.0704"
         ry="0.35756826" />
    </g>
    <g
       id="g44149">
      <rect
         style="fill:#ffffff;fill-opacity:1;stroke:#404040;stroke-width:0.264;stroke-opacity:0.998575"
         id="rect43881"
         width="16.933332"
         height="16.933332"
         x="-434.9931"
         y="253.57335" />
      <rect
         style="fill:#0071ff;fill-opacity:1;stroke:#3e3e3e;stroke-width:0.212602"
         id="rect43883"
         width="13.538466"
         height="13.107813"
         x="-428.20804"
         y="259.98792"
         transform="matrix(0.99990429,0.01383486,-0.02317995,0.99973131,0,0)"
         ry="3.1116028" />
      <rect
         style="fill:#0000ff;fill-opacity:1;stroke:#3e3e3e;stroke-width:0.218293"
         id="rect43885"
         width="2.1145294"
         height="4.0225053"
         x="-304.47836"
         y="419.7695"
         ry="0.84295779"
         inkscape:transform-center-x="0.75518709"
         inkscape:transform-center-y="2.0290014"
         transform="matrix(0.91132309,0.41169191,-0.3622724,0.93207227,0,0)" />
      <rect
         style="fill:#3131ff;fill-opacity:1;stroke:#3e3e3e;stroke-width:0.217155"
         id="rect43887"
         width="2.0680165"
         height="4.07021"
         x="-481.36227"
         y="140.71834"
         ry="0.85295475"
         inkscape:transform-center-x="-0.56959544"
         inkscape:transform-center-y="2.1221806"
         transform="matrix(0.96225226,-0.27215913,0.26685829,0.96373578,0,0)" />
      <rect
         style="fill:#4f95ee;fill-opacity:1;stroke:#3e3e3e;stroke-width:0.212602"
         id="rect43889"
         width="13.538466"
         height="13.107813"
         x="-426.65479"
         y="260.25296"
         transform="matrix(0.99990429,0.01383486,-0.02317995,0.99973131,0,0)"
         ry="3.1116028" />
      <rect
         style="fill:#ffffff;fill-opacity:1;stroke:#3e3e3e;stroke-width:0.217154"
         id="rect43891"
         width="9.0215807"
         height="3.7354608"
         x="-430.38632"
         y="255.75346"
         ry="1.8677304" />
      <ellipse
         style="fill:#000000;fill-opacity:1;stroke:#3e3e3e;stroke-width:0.217154"
         id="ellipse43893"
         cx="-426.25424"
         cy="258.08249"
         rx="1.0114367"
         ry="0.8214727" />
      <ellipse
         style="fill:#000000;fill-opacity:1;stroke:#3e3e3e;stroke-width:0.217154"
         id="ellipse43895"
         cx="-423.30856"
         cy="258.0405"
         rx="1.0114367"
         ry="0.8214727" />
      <ellipse
         style="fill:#00ffff;fill-opacity:1;stroke:#3e3e3e;stroke-width:0.217154"
         id="ellipse43897"
         cx="-428.84891"
         cy="263.03934"
         rx="1.883193"
         ry="1.4882694" />
      <g
         id="g43911"
         transform="matrix(0.90569067,0,0,0.74704585,-37.749186,123.89581)">
        <g
           id="g43903">
          <rect
             style="fill:#00ffff;fill-opacity:1;stroke:#404040;stroke-width:0.264;stroke-opacity:0.998575"
             id="rect43899"
             width="0.87442863"
             height="2.7828619"
             x="-432.30545"
             y="184.97853"
             ry="0.58811527" />
          <rect
             style="fill:#00ffff;fill-opacity:1;stroke:#404040;stroke-width:0.264;stroke-opacity:0.998575"
             id="rect43901"
             width="0.87442863"
             height="2.7828619"
             x="185.95914"
             y="430.47076"
             ry="0.58811527"
             transform="rotate(90)" />
        </g>
        <g
           id="g43909"
           transform="translate(0.16569934,-0.2034774)">
          <rect
             style="fill:#00ffff;fill-opacity:1;stroke:#404040;stroke-width:0.264;stroke-opacity:0.998575"
             id="rect43905"
             width="0.87442863"
             height="2.7828619"
             x="-432.30545"
             y="184.97853"
             ry="0.58811527" />
          <rect
             style="fill:#00ffff;fill-opacity:1;stroke:#404040;stroke-width:0.264;stroke-opacity:0.998575"
             id="rect43907"
             width="0.87442863"
             height="2.7828619"
             x="185.95914"
             y="430.47076"
             ry="0.58811527"
             transform="rotate(90)" />
        </g>
      </g>
      <ellipse
         style="fill:#00ffff;fill-opacity:1;stroke:#404040;stroke-width:0.217154;stroke-opacity:0.998575"
         id="ellipse43913"
         cx="-423.22546"
         cy="263.13071"
         rx="1.6939456"
         ry="1.4056331" />
      <ellipse
         style="fill:#ffffff;fill-opacity:1;stroke:#404040;stroke-width:0.217154;stroke-opacity:0.998575"
         id="ellipse43915"
         cx="-423.31448"
         cy="263.99893"
         rx="0.37494755"
         ry="0.31391215" />
      <ellipse
         style="fill:#ffffff;fill-opacity:1;stroke:#404040;stroke-width:0.217154;stroke-opacity:0.998575"
         id="ellipse43917"
         cx="-424.17953"
         cy="263.18143"
         rx="0.37494755"
         ry="0.31391215" />
      <ellipse
         style="fill:#ffffff;fill-opacity:1;stroke:#404040;stroke-width:0.217154;stroke-opacity:0.998575"
         id="ellipse43919"
         cx="-423.28403"
         cy="262.46118"
         rx="0.37494755"
         ry="0.31391215" />
      <ellipse
         style="fill:#ffffff;fill-opacity:1;stroke:#404040;stroke-width:0.217154;stroke-opacity:0.998575"
         id="ellipse43921"
         cx="-422.42468"
         cy="263.21985"
         rx="0.37494755"
         ry="0.31391215" />
      <rect
         style="fill:#ffffff;fill-opacity:1;stroke:#404040;stroke-width:0.217154;stroke-opacity:0.998575"
         id="rect43923"
         width="2.1566167"
         height="0.71513653"
         x="-425.31506"
         y="265.18021"
         ry="0.35756826" />
      <rect
         style="fill:#ffffff;fill-opacity:1;stroke:#404040;stroke-width:0.217154;stroke-opacity:0.998575"
         id="rect43925"
         width="2.1566167"
         height="0.71513653"
         x="-428.35437"
         y="265.1929"
         ry="0.35756826" />
    </g>
    <g
       id="g44324">
      <rect
         style="fill:#ffffff;fill-opacity:1;stroke:#404040;stroke-width:0.264;stroke-opacity:0.998575"
         id="rect44151"
         width="16.933332"
         height="16.933332"
         x="-414.57156"
         y="277.4881" />
      <rect
         style="fill:#0071ff;fill-opacity:1;stroke:#3e3e3e;stroke-width:0.212602"
         id="rect44153"
         width="13.538466"
         height="13.107813"
         x="-407.23672"
         y="283.61887"
         transform="matrix(0.99990429,0.01383486,-0.02317995,0.99973131,0,0)"
         ry="3.1116028" />
      <rect
         style="fill:#0000ff;fill-opacity:1;stroke:#3e3e3e;stroke-width:0.21733"
         id="rect44155"
         width="2.0712543"
         height="4.0704021"
         x="-157.06612"
         y="484.90393"
         ry="0.8529951"
         inkscape:transform-center-x="1.2773294"
         inkscape:transform-center-y="1.7798789"
         transform="matrix(0.76904912,0.63918968,-0.59431915,0.80422929,0,0)" />
      <rect
         style="fill:#3131ff;fill-opacity:1;stroke:#3e3e3e;stroke-width:0.217155"
         id="rect44157"
         width="2.0680165"
         height="4.07021"
         x="-306.90118"
         y="390.94748"
         ry="0.85295475"
         inkscape:transform-center-x="0.63733684"
         inkscape:transform-center-y="2.1028443"
         transform="matrix(0.96081702,0.27718342,-0.28246803,0.95927671,0,0)" />
      <rect
         style="fill:#4f95ee;fill-opacity:1;stroke:#3e3e3e;stroke-width:0.212602"
         id="rect44159"
         width="13.538466"
         height="13.107813"
         x="-405.68347"
         y="283.88391"
         transform="matrix(0.99990429,0.01383486,-0.02317995,0.99973131,0,0)"
         ry="3.1116028" />
      <rect
         style="fill:#ffffff;fill-opacity:1;stroke:#3e3e3e;stroke-width:0.217154"
         id="rect44161"
         width="9.0215807"
         height="3.7354608"
         x="-409.96478"
         y="279.66821"
         ry="1.8677304" />
      <ellipse
         style="fill:#000000;fill-opacity:1;stroke:#3e3e3e;stroke-width:0.217154"
         id="ellipse44163"
         cx="-405.8327"
         cy="281.99722"
         rx="1.0114367"
         ry="0.8214727" />
      <ellipse
         style="fill:#000000;fill-opacity:1;stroke:#3e3e3e;stroke-width:0.217154"
         id="ellipse44165"
         cx="-402.88702"
         cy="281.95523"
         rx="1.0114367"
         ry="0.8214727" />
      <ellipse
         style="fill:#00ffff;fill-opacity:1;stroke:#3e3e3e;stroke-width:0.217154"
         id="ellipse44167"
         cx="-408.42737"
         cy="286.95407"
         rx="1.883193"
         ry="1.4882694" />
      <g
         id="g44181"
         transform="matrix(0.90569067,0,0,0.74704585,-17.327639,147.81055)">
        <g
           id="g44173">
          <rect
             style="fill:#00ffff;fill-opacity:1;stroke:#404040;stroke-width:0.264;stroke-opacity:0.998575"
             id="rect44169"
             width="0.87442863"
             height="2.7828619"
             x="-432.30545"
             y="184.97853"
             ry="0.58811527" />
          <rect
             style="fill:#00ffff;fill-opacity:1;stroke:#404040;stroke-width:0.264;stroke-opacity:0.998575"
             id="rect44171"
             width="0.87442863"
             height="2.7828619"
             x="185.95914"
             y="430.47076"
             ry="0.58811527"
             transform="rotate(90)" />
        </g>
        <g
           id="g44179"
           transform="translate(0.16569934,-0.2034774)">
          <rect
             style="fill:#00ffff;fill-opacity:1;stroke:#404040;stroke-width:0.264;stroke-opacity:0.998575"
             id="rect44175"
             width="0.87442863"
             height="2.7828619"
             x="-432.30545"
             y="184.97853"
             ry="0.58811527" />
          <rect
             style="fill:#00ffff;fill-opacity:1;stroke:#404040;stroke-width:0.264;stroke-opacity:0.998575"
             id="rect44177"
             width="0.87442863"
             height="2.7828619"
             x="185.95914"
             y="430.47076"
             ry="0.58811527"
             transform="rotate(90)" />
        </g>
      </g>
      <ellipse
         style="fill:#00ffff;fill-opacity:1;stroke:#404040;stroke-width:0.217154;stroke-opacity:0.998575"
         id="ellipse44183"
         cx="-402.80392"
         cy="287.04547"
         rx="1.6939456"
         ry="1.4056331" />
      <ellipse
         style="fill:#ffffff;fill-opacity:1;stroke:#404040;stroke-width:0.217154;stroke-opacity:0.998575"
         id="ellipse44185"
         cx="-402.89294"
         cy="287.91367"
         rx="0.37494755"
         ry="0.31391215" />
      <ellipse
         style="fill:#ffffff;fill-opacity:1;stroke:#404040;stroke-width:0.217154;stroke-opacity:0.998575"
         id="ellipse44187"
         cx="-403.758"
         cy="287.09616"
         rx="0.37494755"
         ry="0.31391215" />
      <ellipse
         style="fill:#ffffff;fill-opacity:1;stroke:#404040;stroke-width:0.217154;stroke-opacity:0.998575"
         id="ellipse44189"
         cx="-402.86249"
         cy="286.37592"
         rx="0.37494755"
         ry="0.31391215" />
      <ellipse
         style="fill:#ffffff;fill-opacity:1;stroke:#404040;stroke-width:0.217154;stroke-opacity:0.998575"
         id="ellipse44191"
         cx="-402.00314"
         cy="287.13458"
         rx="0.37494755"
         ry="0.31391215" />
      <rect
         style="fill:#ffffff;fill-opacity:1;stroke:#404040;stroke-width:0.217154;stroke-opacity:0.998575"
         id="rect44193"
         width="2.1566167"
         height="0.71513653"
         x="-404.89352"
         y="289.09494"
         ry="0.35756826" />
      <rect
         style="fill:#ffffff;fill-opacity:1;stroke:#404040;stroke-width:0.217154;stroke-opacity:0.998575"
         id="rect44195"
         width="2.1566167"
         height="0.71513653"
         x="-407.93283"
         y="289.10764"
         ry="0.35756826" />
    </g>
  </g>
</svg>
